<svg width="25" height="24" viewBox="0 0 25 24" fill="none" xmlns="http://www.w3.org/2000/svg">
<path fill-rule="evenodd" clip-rule="evenodd" d="M10.0679 3.00327C11.2223 1.00216 14.1105 1.00216 15.265 3.00327L22.6193 15.7508C23.7731 17.7508 22.3297 20.2499 20.0207 20.2499H5.31209C3.00312 20.2499 1.55969 17.7508 2.71353 15.7508L10.0679 3.00327ZM12.6666 8.24988C13.0808 8.24988 13.4166 8.58566 13.4166 8.99988V12.7499C13.4166 13.1641 13.0808 13.4999 12.6666 13.4999C12.2524 13.4999 11.9166 13.1641 11.9166 12.7499V8.99988C11.9166 8.58566 12.2524 8.24988 12.6666 8.24988ZM12.6666 16.4999C13.0808 16.4999 13.4166 16.1641 13.4166 15.7499C13.4166 15.3357 13.0808 14.9999 12.6666 14.9999C12.2524 14.9999 11.9166 15.3357 11.9166 15.7499C11.9166 16.1641 12.2524 16.4999 12.6666 16.4999Z" fill="#D8484A"/>
</svg>
