<svg width="24" height="24" viewBox="0 0 24 24" fill="none" xmlns="http://www.w3.org/2000/svg">
<path fill-rule="evenodd" clip-rule="evenodd" d="M3.59961 11.9997C3.59961 11.5026 4.00255 11.0997 4.49961 11.0997L17.2651 11.0997L12.2758 6.34845C11.9175 6.00394 11.9063 5.4342 12.2509 5.07591C12.5954 4.71761 13.1651 4.70644 13.5234 5.05096L20.1234 11.351C20.2999 11.5206 20.3996 11.7549 20.3996 11.9997C20.3996 12.2445 20.2999 12.4788 20.1234 12.6485L13.5234 18.9485C13.1651 19.293 12.5954 19.2818 12.2509 18.9235C11.9063 18.5652 11.9175 17.9955 12.2758 17.651L17.2651 12.8997L4.49961 12.8997C4.00255 12.8997 3.59961 12.4968 3.59961 11.9997Z" fill="#4E7C3C"/>
</svg>
