<svg width="24" height="24" viewBox="0 0 24 24" fill="none" xmlns="http://www.w3.org/2000/svg">
<path fill-rule="evenodd" clip-rule="evenodd" d="M20.4004 11.9993C20.4004 12.4964 19.9974 12.8993 19.5004 12.8993L6.73489 12.8993L11.7242 17.6506C12.0825 17.9951 12.0937 18.5648 11.7491 18.9231C11.4046 19.2814 10.8349 19.2926 10.4766 18.9481L3.87659 12.6481C3.70012 12.4784 3.60039 12.2441 3.60039 11.9993C3.60039 11.7545 3.70012 11.5203 3.87659 11.3506L10.4766 5.05057C10.8349 4.70605 11.4046 4.71722 11.7491 5.07552C12.0937 5.43381 12.0825 6.00355 11.7242 6.34807L6.73489 11.0993L19.5004 11.0993C19.9974 11.0993 20.4004 11.5023 20.4004 11.9993Z" fill="#D8484A"/>
</svg>
