<svg width="16" height="16" viewBox="0 0 16 16" fill="none" xmlns="http://www.w3.org/2000/svg">
<path fill-rule="evenodd" clip-rule="evenodd" d="M6.23382 1.78572C6.46262 2.02542 6.45379 2.40522 6.21409 2.63402L2.89734 5.80001H10.8998C13.2746 5.80001 15.1998 7.72518 15.1998 10.1C15.1998 12.4748 13.2746 14.4 10.8998 14.4H8.5998C8.26843 14.4 7.9998 14.1314 7.9998 13.8C7.9998 13.4686 8.26843 13.2 8.5998 13.2H10.8998C12.6119 13.2 13.9998 11.8121 13.9998 10.1C13.9998 8.38792 12.6119 7.00001 10.8998 7.00001H2.89734L6.21409 10.166C6.45379 10.3948 6.46262 10.7746 6.23382 11.0143C6.00501 11.254 5.62522 11.2628 5.38552 11.034L0.985519 6.83402C0.866911 6.7208 0.799805 6.56398 0.799805 6.40001C0.799805 6.23604 0.866911 6.07921 0.985519 5.96599L5.38552 1.76599C5.62522 1.53719 6.00501 1.54602 6.23382 1.78572Z" fill="#4E7C3C"/>
</svg>
