<svg width="24" height="25" viewBox="0 0 24 25" fill="none" xmlns="http://www.w3.org/2000/svg">
<path d="M5.05723 4.17243C5.37379 3.78921 5.31975 3.22193 4.93654 2.90537C4.55332 2.58881 3.98604 2.64284 3.66948 3.02606C2.59035 4.33241 1.81181 5.89817 1.44174 7.61668C1.3371 8.1026 1.64619 8.58134 2.13211 8.68598C2.61803 8.79062 3.09677 8.48153 3.20141 7.99561C3.50922 6.56617 4.15703 5.26217 5.05723 4.17243Z" fill="#D8484A"/>
<path d="M20.3299 3.02606C20.0133 2.64284 19.4461 2.58881 19.0628 2.90537C18.6796 3.22193 18.6256 3.78921 18.9421 4.17243C19.8424 5.26217 20.4902 6.56617 20.798 7.99561C20.9026 8.48153 21.3813 8.79062 21.8673 8.68598C22.3532 8.58134 22.6623 8.1026 22.5576 7.61668C22.1876 5.89817 21.409 4.33241 20.3299 3.02606Z" fill="#D8484A"/>
<path fill-rule="evenodd" clip-rule="evenodd" d="M11.9999 2.70024C8.02341 2.70024 4.79986 5.92379 4.79986 9.90024C4.79986 12.1642 4.25538 14.2984 3.29103 16.1814C3.163 16.4314 3.15902 16.7268 3.28028 16.9802C3.40154 17.2336 3.63412 17.4158 3.90913 17.4729C5.19035 17.7389 6.49408 17.943 7.81701 18.0819C8.00984 20.2226 9.80895 21.9002 11.9999 21.9002C14.1909 21.9002 15.99 20.2226 16.1828 18.0819C17.5057 17.943 18.8094 17.7389 20.0906 17.4729C20.3656 17.4158 20.5982 17.2336 20.7194 16.9802C20.8407 16.7268 20.8367 16.4314 20.7087 16.1814C19.7443 14.2984 19.1999 12.1642 19.1999 9.90024C19.1999 5.92379 15.9763 2.70024 11.9999 2.70024ZM11.9999 20.1002C10.8572 20.1002 9.90107 19.3017 9.65906 18.2322C10.4336 18.2773 11.2141 18.3002 11.9999 18.3002C12.7856 18.3002 13.5661 18.2773 14.3407 18.2322C14.0987 19.3017 13.1426 20.1002 11.9999 20.1002Z" fill="#D8484A"/>
</svg>
