<svg width="24" height="25" viewBox="0 0 24 25" fill="none" xmlns="http://www.w3.org/2000/svg">
<path d="M12 6.1499V18.1499M9 15.3317L9.87887 15.9909C11.0504 16.8696 12.9498 16.8696 14.1214 15.9909C15.2929 15.1122 15.2929 13.6876 14.1214 12.8089C13.5355 12.3695 12.7677 12.1499 11.9999 12.1499C11.275 12.1499 10.5502 11.9303 9.99709 11.4909C8.891 10.6122 8.891 9.18762 9.9971 8.30894C11.1032 7.43026 12.8965 7.43026 14.0026 8.30894L14.4175 8.63853M21 12.1499C21 17.1205 16.9706 21.1499 12 21.1499C7.02944 21.1499 3 17.1205 3 12.1499C3 7.17934 7.02944 3.1499 12 3.1499C16.9706 3.1499 21 7.17934 21 12.1499Z" stroke="#96999E" stroke-width="1.5" stroke-linecap="round" stroke-linejoin="round"/>
</svg>
