<svg width="25" height="24" viewBox="0 0 25 24" fill="none" xmlns="http://www.w3.org/2000/svg">
<path fill-rule="evenodd" clip-rule="evenodd" d="M7.2334 2.39999C7.73045 2.39999 8.1334 2.80294 8.1334 3.29999V4.79999H16.5334V3.29999C16.5334 2.80294 16.9363 2.39999 17.4334 2.39999C17.9305 2.39999 18.3334 2.80294 18.3334 3.29999V4.79999H18.6334C20.4559 4.79999 21.9334 6.27745 21.9334 8.09999V18.3C21.9334 20.1225 20.4559 21.6 18.6334 21.6H6.0334C4.21086 21.6 2.7334 20.1225 2.7334 18.3V8.09999C2.7334 6.27745 4.21086 4.79999 6.0334 4.79999H6.3334V3.29999C6.3334 2.80294 6.73634 2.39999 7.2334 2.39999ZM6.0334 8.99999C5.20497 8.99999 4.5334 9.67157 4.5334 10.5V18.3C4.5334 19.1284 5.20497 19.8 6.0334 19.8H18.6334C19.4618 19.8 20.1334 19.1284 20.1334 18.3V10.5C20.1334 9.67157 19.4618 8.99999 18.6334 8.99999H6.0334Z" fill="#434546"/>
</svg>
