<svg width="22" height="18" viewBox="0 0 22 18" fill="none" xmlns="http://www.w3.org/2000/svg">
<path fill-rule="evenodd" clip-rule="evenodd" d="M3.5 0.75C1.84315 0.75 0.5 2.09315 0.5 3.75V14.25C0.5 15.9069 1.84315 17.25 3.5 17.25H18.5C20.1569 17.25 21.5 15.9069 21.5 14.25V3.75C21.5 2.09315 20.1569 0.75 18.5 0.75H3.5ZM7.625 3.75C6.38236 3.75 5.375 4.75736 5.375 6C5.375 7.24264 6.38236 8.25 7.625 8.25C8.86764 8.25 9.875 7.24264 9.875 6C9.875 4.75736 8.86764 3.75 7.625 3.75ZM3.75191 12.4528C4.3309 10.8765 5.84542 9.75 7.62496 9.75C9.40449 9.75 10.919 10.8765 11.498 12.4528C11.6271 12.8043 11.4771 13.1972 11.1466 13.3733C10.0958 13.9331 8.89627 14.25 7.62496 14.25C6.35364 14.25 5.15413 13.9331 4.10331 13.3733C3.77278 13.1972 3.62279 12.8043 3.75191 12.4528ZM14 5.25C13.5858 5.25 13.25 5.58579 13.25 6C13.25 6.41421 13.5858 6.75 14 6.75H17.75C18.1642 6.75 18.5 6.41421 18.5 6C18.5 5.58579 18.1642 5.25 17.75 5.25H14ZM13.25 9C13.25 8.58579 13.5858 8.25 14 8.25H17.75C18.1642 8.25 18.5 8.58579 18.5 9C18.5 9.41421 18.1642 9.75 17.75 9.75H14C13.5858 9.75 13.25 9.41421 13.25 9ZM14 11.25C13.5858 11.25 13.25 11.5858 13.25 12C13.25 12.4142 13.5858 12.75 14 12.75H17.75C18.1642 12.75 18.5 12.4142 18.5 12C18.5 11.5858 18.1642 11.25 17.75 11.25H14Z" fill="currentColor"/>
</svg>
