<svg width="24" height="25" viewBox="0 0 24 25" fill="none" xmlns="http://www.w3.org/2000/svg">
<path d="M2.25 12.8998V12.1498C2.25 10.9072 3.25736 9.89984 4.5 9.89984H19.5C20.7426 9.89984 21.75 10.9072 21.75 12.1498V12.8998M13.0607 6.4605L10.9393 4.33918C10.658 4.05788 10.2765 3.89984 9.87868 3.89984H4.5C3.25736 3.89984 2.25 4.9072 2.25 6.14984V18.1498C2.25 19.3925 3.25736 20.3998 4.5 20.3998H19.5C20.7426 20.3998 21.75 19.3925 21.75 18.1498V9.14984C21.75 7.9072 20.7426 6.89984 19.5 6.89984H14.1213C13.7235 6.89984 13.342 6.74181 13.0607 6.4605Z" stroke="#96999E" stroke-width="1.5" stroke-linecap="round" stroke-linejoin="round"/>
</svg>
