<svg width="25" height="24" viewBox="0 0 25 24" fill="none" xmlns="http://www.w3.org/2000/svg">
<path fill-rule="evenodd" clip-rule="evenodd" d="M3.02075 8.15954C3.38499 8.49776 3.95445 8.47667 4.29267 8.11243L6.63316 5.59191L6.63316 15.9C6.63316 16.3971 7.0361 16.8 7.53316 16.8C8.03021 16.8 8.43316 16.3971 8.43316 15.9V5.59191L10.7736 8.11243C11.1119 8.47667 11.6813 8.49776 12.0456 8.15954C12.4098 7.82132 12.4309 7.25186 12.0927 6.88762L8.19267 2.68762C8.02238 2.50423 7.78342 2.40002 7.53316 2.40002C7.2829 2.40002 7.04393 2.50423 6.87364 2.68762L2.97364 6.88762C2.63542 7.25186 2.65651 7.82132 3.02075 8.15954ZM12.6208 15.8405C12.2565 16.1787 12.2354 16.7482 12.5736 17.1124L16.4736 21.3124C16.6439 21.4958 16.8829 21.6 17.1332 21.6C17.3834 21.6 17.6224 21.4958 17.7927 21.3124L21.6927 17.1124C22.0309 16.7482 22.0098 16.1787 21.6456 15.8405C21.2813 15.5023 20.7119 15.5234 20.3736 15.8876L18.0332 18.4081V8.10003C18.0332 7.60297 17.6302 7.20003 17.1332 7.20003C16.6361 7.20003 16.2332 7.60297 16.2332 8.10003V18.4081L13.8927 15.8876C13.5544 15.5234 12.985 15.5023 12.6208 15.8405Z" fill="white"/>
</svg>
