<svg width="24" height="25" viewBox="0 0 24 25" fill="none" xmlns="http://www.w3.org/2000/svg">
<path d="M8.625 10.1997C8.625 10.4068 8.45711 10.5747 8.25 10.5747C8.04289 10.5747 7.875 10.4068 7.875 10.1997C7.875 9.9926 8.04289 9.82471 8.25 9.82471C8.45711 9.82471 8.625 9.9926 8.625 10.1997ZM8.625 10.1997H8.25M12.375 10.1997C12.375 10.4068 12.2071 10.5747 12 10.5747C11.7929 10.5747 11.625 10.4068 11.625 10.1997C11.625 9.9926 11.7929 9.82471 12 9.82471C12.2071 9.82471 12.375 9.9926 12.375 10.1997ZM12.375 10.1997H12M16.125 10.1997C16.125 10.4068 15.9571 10.5747 15.75 10.5747C15.5429 10.5747 15.375 10.4068 15.375 10.1997C15.375 9.9926 15.5429 9.82471 15.75 9.82471C15.9571 9.82471 16.125 9.9926 16.125 10.1997ZM16.125 10.1997H15.75M2.25 13.2091C2.25 14.8101 3.37341 16.2038 4.95746 16.4367C6.04357 16.5964 7.14151 16.7197 8.25 16.8054V21.4497L12.4335 17.2662C12.6402 17.0595 12.9193 16.942 13.2116 16.9347C15.1872 16.8858 17.1331 16.7175 19.0425 16.4368C20.6266 16.2039 21.75 14.8103 21.75 13.2092V7.19026C21.75 5.58917 20.6266 4.19553 19.0425 3.96264C16.744 3.62472 14.3926 3.44971 12.0003 3.44971C9.60776 3.44971 7.25612 3.62475 4.95747 3.96273C3.37342 4.19564 2.25 5.58927 2.25 7.19035V13.2091Z" stroke="#96999E" stroke-width="1.5" stroke-linecap="round" stroke-linejoin="round"/>
</svg>
