<svg width="24" height="25" viewBox="0 0 24 25" fill="none" xmlns="http://www.w3.org/2000/svg">
<path fill-rule="evenodd" clip-rule="evenodd" d="M2.25 12.25C2.25 6.86522 6.61522 2.5 12 2.5C17.3848 2.5 21.75 6.86522 21.75 12.25C21.75 17.6348 17.3848 22 12 22C6.61522 22 2.25 17.6348 2.25 12.25ZM15.6103 10.4359C15.8511 10.0989 15.773 9.63046 15.4359 9.3897C15.0989 9.14894 14.6305 9.22701 14.3897 9.56407L11.1543 14.0936L9.53033 12.4697C9.23744 12.1768 8.76256 12.1768 8.46967 12.4697C8.17678 12.7626 8.17678 13.2374 8.46967 13.5303L10.7197 15.7803C10.8756 15.9362 11.0921 16.0156 11.3119 15.9974C11.5316 15.9793 11.7322 15.8653 11.8603 15.6859L15.6103 10.4359Z" fill="#4E7C3C"/>
</svg>
