<svg width="16" height="17" viewBox="0 0 16 17" fill="none" xmlns="http://www.w3.org/2000/svg">
<path fill-rule="evenodd" clip-rule="evenodd" d="M7.99998 14.6999C11.5346 14.6999 14.4 11.8345 14.4 8.2999C14.4 4.76528 11.5346 1.8999 7.99998 1.8999C4.46535 1.8999 1.59998 4.76528 1.59998 8.2999C1.59998 11.8345 4.46535 14.6999 7.99998 14.6999ZM7.39998 10.8999C7.39998 11.2313 7.6686 11.4999 7.99998 11.4999C8.33135 11.4999 8.59998 11.2313 8.59998 10.8999V7.22782L10.1603 8.90817C10.3858 9.151 10.7654 9.16506 11.0082 8.93958C11.2511 8.7141 11.2651 8.33446 11.0397 8.09163L8.43965 5.29163C8.32612 5.16937 8.16682 5.0999 7.99998 5.0999C7.83313 5.0999 7.67383 5.16937 7.5603 5.29163L4.9603 8.09163C4.73482 8.33446 4.74888 8.7141 4.9917 8.93958C5.23453 9.16506 5.61417 9.151 5.83965 8.90817L7.39998 7.22782V10.8999Z" fill="currentColor"/>
</svg>
