<svg width="17" height="16" viewBox="0 0 17 16" fill="none" xmlns="http://www.w3.org/2000/svg">
<path fill-rule="evenodd" clip-rule="evenodd" d="M12.9972 3.50294C12.0599 2.56568 10.5403 2.56568 9.60304 3.50294L4.00304 9.10294C3.06578 10.0402 3.06578 11.5598 4.00304 12.4971C4.94006 13.4341 6.45912 13.4343 7.39643 12.4978C7.39667 12.4975 7.39691 12.4973 7.39715 12.4971L7.79444 12.0971C8.02797 11.862 8.40787 11.8608 8.64296 12.0943C8.87805 12.3279 8.8793 12.7078 8.64576 12.9429L8.24708 13.3442L8.24568 13.3456C6.83979 14.7515 4.5604 14.7515 3.15451 13.3456C1.74863 11.9397 1.74863 9.6603 3.15451 8.25441L8.75451 2.65441C10.1604 1.24853 12.4398 1.24853 13.8457 2.65441C15.2505 4.05926 15.2516 6.3363 13.8488 7.74244L11.0851 10.585C10.265 11.4051 8.93528 11.405 8.11518 10.5849C7.29508 9.76484 7.29508 8.43519 8.11518 7.61509L10.8758 4.85443C11.1101 4.62012 11.49 4.62012 11.7244 4.85443C11.9587 5.08875 11.9587 5.46865 11.7244 5.70296L8.96371 8.46362C8.61223 8.81509 8.61223 9.38494 8.96371 9.73641C9.3143 10.087 9.88219 10.0879 10.2339 9.73903L12.9971 6.89701C13.9344 5.95975 13.9344 4.4402 12.9972 3.50294Z" fill="#96999E"/>
</svg>
