<svg width="24" height="24" viewBox="0 0 24 24" fill="none" xmlns="http://www.w3.org/2000/svg">
<path fill-rule="evenodd" clip-rule="evenodd" d="M11.9999 21.6C17.3018 21.6 21.5999 17.302 21.5999 12C21.5999 6.69809 17.3018 2.40002 11.9999 2.40002C6.69797 2.40002 2.3999 6.69809 2.3999 12C2.3999 17.302 6.69797 21.6 11.9999 21.6ZM9.9363 8.66363C9.58483 8.31216 9.01498 8.31216 8.66351 8.66363C8.31203 9.0151 8.31203 9.58495 8.66351 9.93642L10.7271 12L8.66351 14.0636C8.31203 14.4151 8.31203 14.9849 8.66351 15.3364C9.01498 15.6879 9.58483 15.6879 9.9363 15.3364L11.9999 13.2728L14.0635 15.3364C14.415 15.6879 14.9848 15.6879 15.3363 15.3364C15.6878 14.9849 15.6878 14.4151 15.3363 14.0636L13.2727 12L15.3363 9.93642C15.6878 9.58495 15.6878 9.0151 15.3363 8.66363C14.9848 8.31216 14.415 8.31216 14.0635 8.66363L11.9999 10.7272L9.9363 8.66363Z" fill="#61676A"/>
</svg>
