<svg width="18" height="20" viewBox="0 0 18 20" fill="none" xmlns="http://www.w3.org/2000/svg">
<path fill-rule="evenodd" clip-rule="evenodd" d="M1.5 0.25C1.08579 0.25 0.75 0.585786 0.75 1C0.75 1.41421 1.08579 1.75 1.5 1.75V18.25H0.75C0.335786 18.25 0 18.5858 0 19C0 19.4142 0.335786 19.75 0.75 19.75H17.25C17.6642 19.75 18 19.4142 18 19C18 18.5858 17.6642 18.25 17.25 18.25H16.5V1.75C16.9142 1.75 17.25 1.41421 17.25 1C17.25 0.585786 16.9142 0.25 16.5 0.25H1.5ZM6 4C5.58579 4 5.25 4.33579 5.25 4.75C5.25 5.16421 5.58579 5.5 6 5.5H7.5C7.91421 5.5 8.25 5.16421 8.25 4.75C8.25 4.33579 7.91421 4 7.5 4H6ZM5.25 7.75C5.25 7.33579 5.58579 7 6 7H7.5C7.91421 7 8.25 7.33579 8.25 7.75C8.25 8.16421 7.91421 8.5 7.5 8.5H6C5.58579 8.5 5.25 8.16421 5.25 7.75ZM6 10C5.58579 10 5.25 10.3358 5.25 10.75C5.25 11.1642 5.58579 11.5 6 11.5H7.5C7.91421 11.5 8.25 11.1642 8.25 10.75C8.25 10.3358 7.91421 10 7.5 10H6ZM9.75 4.75C9.75 4.33579 10.0858 4 10.5 4H12C12.4142 4 12.75 4.33579 12.75 4.75C12.75 5.16421 12.4142 5.5 12 5.5H10.5C10.0858 5.5 9.75 5.16421 9.75 4.75ZM10.5 7C10.0858 7 9.75 7.33579 9.75 7.75C9.75 8.16421 10.0858 8.5 10.5 8.5H12C12.4142 8.5 12.75 8.16421 12.75 7.75C12.75 7.33579 12.4142 7 12 7H10.5ZM9.75 10.75C9.75 10.3358 10.0858 10 10.5 10H12C12.4142 10 12.75 10.3358 12.75 10.75C12.75 11.1642 12.4142 11.5 12 11.5H10.5C10.0858 11.5 9.75 11.1642 9.75 10.75ZM6 17.5V15.25C6 14.8358 6.33579 14.5 6.75 14.5H11.25C11.6642 14.5 12 14.8358 12 15.25V17.5C12 17.9142 11.6642 18.25 11.25 18.25H6.75C6.33579 18.25 6 17.9142 6 17.5Z" fill="currentColor"/>
</svg>
