<svg width="24" height="25" viewBox="0 0 24 25" fill="none" xmlns="http://www.w3.org/2000/svg">
<path d="M3 13.2748C3 12.6535 3.50368 12.1498 4.125 12.1498H6.375C6.99632 12.1498 7.5 12.6535 7.5 13.2748V20.0248C7.5 20.6462 6.99632 21.1498 6.375 21.1498H4.125C3.50368 21.1498 3 20.6462 3 20.0248V13.2748Z" stroke="#4E7C3C" stroke-width="1.5" stroke-linecap="round" stroke-linejoin="round"/>
<path d="M9.75 8.77484C9.75 8.15352 10.2537 7.64984 10.875 7.64984H13.125C13.7463 7.64984 14.25 8.15352 14.25 8.77484V20.0248C14.25 20.6462 13.7463 21.1498 13.125 21.1498H10.875C10.2537 21.1498 9.75 20.6462 9.75 20.0248V8.77484Z" stroke="#4E7C3C" stroke-width="1.5" stroke-linecap="round" stroke-linejoin="round"/>
<path d="M16.5 4.27484C16.5 3.65352 17.0037 3.14984 17.625 3.14984H19.875C20.4963 3.14984 21 3.65352 21 4.27484V20.0248C21 20.6462 20.4963 21.1498 19.875 21.1498H17.625C17.0037 21.1498 16.5 20.6462 16.5 20.0248V4.27484Z" stroke="#4E7C3C" stroke-width="1.5" stroke-linecap="round" stroke-linejoin="round"/>
</svg>
