<svg width="20" height="20" viewBox="0 0 20 20" fill="none" xmlns="http://www.w3.org/2000/svg">
<path fill-rule="evenodd" clip-rule="evenodd" d="M3.1 0.400024C1.60883 0.400024 0.400002 1.60886 0.400002 3.10002V16.9C0.400002 18.3912 1.60883 19.6 3.1 19.6H16.9C18.3912 19.6 19.6 18.3912 19.6 16.9V3.10002C19.6 1.60886 18.3912 0.400024 16.9 0.400024H3.1ZM15.85 4.90002C15.85 4.48581 15.5142 4.15002 15.1 4.15002C14.6858 4.15002 14.35 4.48581 14.35 4.90002V15.1C14.35 15.5142 14.6858 15.85 15.1 15.85C15.5142 15.85 15.85 15.5142 15.85 15.1V4.90002ZM5.65 12.1C5.65 11.6858 5.31422 11.35 4.9 11.35C4.48579 11.35 4.15 11.6858 4.15 12.1V15.1C4.15 15.5142 4.48579 15.85 4.9 15.85C5.31422 15.85 5.65 15.5142 5.65 15.1V12.1ZM8.3002 8.95002C8.71441 8.95002 9.0502 9.28581 9.0502 9.70002V15.1C9.0502 15.5142 8.71441 15.85 8.3002 15.85C7.88598 15.85 7.5502 15.5142 7.5502 15.1V9.70002C7.5502 9.28581 7.88598 8.95002 8.3002 8.95002ZM12.4463 7.30002C12.4463 6.88581 12.1105 6.55002 11.6963 6.55002C11.2821 6.55002 10.9463 6.88581 10.9463 7.30002V15.1C10.9463 15.5142 11.2821 15.85 11.6963 15.85C12.1105 15.85 12.4463 15.5142 12.4463 15.1V7.30002Z" fill="#786047"/>
</svg>
