<svg width="24" height="25" viewBox="0 0 24 25" fill="none" xmlns="http://www.w3.org/2000/svg">
<path d="M19.5 14.3999V11.7749C19.5 9.91094 17.989 8.3999 16.125 8.3999H14.625C14.0037 8.3999 13.5 7.89622 13.5 7.2749V5.7749C13.5 3.91094 11.989 2.3999 10.125 2.3999H8.25M8.25 15.1499H15.75M8.25 18.1499H12M10.5 2.3999H5.625C5.00368 2.3999 4.5 2.90358 4.5 3.5249V20.7749C4.5 21.3962 5.00368 21.8999 5.625 21.8999H18.375C18.9963 21.8999 19.5 21.3962 19.5 20.7749V11.3999C19.5 6.42934 15.4706 2.3999 10.5 2.3999Z" stroke="currentColor" stroke-width="1.5" stroke-linecap="round" stroke-linejoin="round"/>
</svg>
