<svg width="24" height="24" viewBox="0 0 24 24" fill="none" xmlns="http://www.w3.org/2000/svg">
<path d="M6.51982 16.7002L8.03396 12.9149C8.27538 12.3113 8.63688 11.7631 9.09654 11.3034L17.3996 3.00095C18.3937 2.00684 20.0054 2.00684 20.9996 3.00096C21.9937 3.99507 21.9937 5.60684 20.9996 6.60096L12.6965 14.9034C12.2369 15.3631 11.6887 15.7246 11.0851 15.966L7.29974 17.4801C6.80995 17.676 6.3239 17.19 6.51982 16.7002Z" fill="#434546"/>
<path d="M4.20015 6.9001C4.20015 6.07167 4.87172 5.4001 5.70015 5.4001H12.0001C12.4972 5.4001 12.9001 4.99715 12.9001 4.5001C12.9001 4.00304 12.4972 3.6001 12.0001 3.6001H5.70015C3.87761 3.6001 2.40015 5.07756 2.40015 6.9001V18.3001C2.40015 20.1226 3.87761 21.6001 5.70015 21.6001H17.1001C18.9227 21.6001 20.4001 20.1226 20.4001 18.3001V12.0001C20.4001 11.503 19.9972 11.1001 19.5001 11.1001C19.0031 11.1001 18.6001 11.503 18.6001 12.0001V18.3001C18.6001 19.1285 17.9286 19.8001 17.1001 19.8001H5.70015C4.87172 19.8001 4.20015 19.1285 4.20015 18.3001V6.9001Z" fill="#434546"/>
</svg>
