<svg width="24" height="25" viewBox="0 0 24 25" fill="none" xmlns="http://www.w3.org/2000/svg">
<path d="M16.8619 4.93638L18.5494 3.24888C19.2817 2.51665 20.4688 2.51665 21.2011 3.24888C21.9333 3.98112 21.9333 5.1683 21.2011 5.90053L10.5824 16.5192C10.0538 17.0479 9.40168 17.4365 8.68513 17.6499L6.00024 18.4497L6.80002 15.7648C7.01347 15.0483 7.40209 14.3962 7.93077 13.8675L16.8619 4.93638ZM16.8619 4.93638L19.5002 7.5747M18.0002 14.4497V19.1997C18.0002 20.4423 16.9929 21.4497 15.7502 21.4497H5.25024C4.0076 21.4497 3.00024 20.4423 3.00024 19.1997V8.6997C3.00024 7.45706 4.0076 6.4497 5.25024 6.4497H10.0002" stroke="#4E7C3C" stroke-width="1.5" stroke-linecap="round" stroke-linejoin="round"/>
</svg>
