<svg width="24" height="25" viewBox="0 0 24 25" fill="none" xmlns="http://www.w3.org/2000/svg">
<path d="M8.625 9.89984C8.625 10.1069 8.45711 10.2748 8.25 10.2748C8.04289 10.2748 7.875 10.1069 7.875 9.89984C7.875 9.69273 8.04289 9.52484 8.25 9.52484C8.45711 9.52484 8.625 9.69273 8.625 9.89984ZM8.625 9.89984H8.25M12.375 9.89984C12.375 10.1069 12.2071 10.2748 12 10.2748C11.7929 10.2748 11.625 10.1069 11.625 9.89984C11.625 9.69273 11.7929 9.52484 12 9.52484C12.2071 9.52484 12.375 9.69273 12.375 9.89984ZM12.375 9.89984H12M16.125 9.89984C16.125 10.1069 15.9571 10.2748 15.75 10.2748C15.5429 10.2748 15.375 10.1069 15.375 9.89984C15.375 9.69273 15.5429 9.52484 15.75 9.52484C15.9571 9.52484 16.125 9.69273 16.125 9.89984ZM16.125 9.89984H15.75M2.25 12.9092C2.25 14.5103 3.37341 15.9039 4.95746 16.1368C6.04357 16.2965 7.14151 16.4198 8.25 16.5055V21.1498L12.4335 16.9664C12.6402 16.7596 12.9193 16.6421 13.2116 16.6349C15.1872 16.5859 17.1331 16.4176 19.0425 16.1369C20.6266 15.904 21.75 14.5104 21.75 12.9093V6.8904C21.75 5.2893 20.6266 3.89567 19.0425 3.66278C16.744 3.32485 14.3926 3.14984 12.0003 3.14984C9.60776 3.14984 7.25612 3.32489 4.95747 3.66287C3.37342 3.89578 2.25 5.2894 2.25 6.89048V12.9092Z" stroke="#96999E" stroke-width="1.5" stroke-linecap="round" stroke-linejoin="round"/>
</svg>
