<svg width="21" height="20" viewBox="0 0 21 20" fill="none" xmlns="http://www.w3.org/2000/svg">
<path fill-rule="evenodd" clip-rule="evenodd" d="M10.6667 0.25C5.28197 0.25 0.916748 4.61522 0.916748 10C0.916748 15.3848 5.28197 19.75 10.6667 19.75C16.0515 19.75 20.4167 15.3848 20.4167 10C20.4167 4.61522 16.0515 0.25 10.6667 0.25ZM8.94708 7.21967C8.65419 6.92678 8.17931 6.92678 7.88642 7.21967C7.59352 7.51256 7.59352 7.98744 7.88642 8.28033L9.60609 10L7.88642 11.7197C7.59352 12.0126 7.59352 12.4874 7.88642 12.7803C8.17931 13.0732 8.65419 13.0732 8.94708 12.7803L10.6667 11.0607L12.3864 12.7803C12.6793 13.0732 13.1542 13.0732 13.4471 12.7803C13.74 12.4874 13.74 12.0126 13.4471 11.7197L11.7274 10L13.4471 8.28033C13.74 7.98744 13.74 7.51256 13.4471 7.21967C13.1542 6.92678 12.6793 6.92678 12.3864 7.21967L10.6667 8.93934L8.94708 7.21967Z" fill="#D8484A"/>
</svg>
