<svg width="16" height="16" viewBox="0 0 16 16" fill="none" xmlns="http://www.w3.org/2000/svg">
<path fill-rule="evenodd" clip-rule="evenodd" d="M3.39961 4.40001C3.06824 4.40001 2.79961 4.66864 2.79961 5.00001V11.8C2.79961 12.1314 3.06824 12.4 3.39961 12.4H10.1996C10.531 12.4 10.7996 12.1314 10.7996 11.8V8.60001C10.7996 8.26864 11.0682 8.00001 11.3996 8.00001C11.731 8.00001 11.9996 8.26864 11.9996 8.60001V11.8C11.9996 12.7941 11.1937 13.6 10.1996 13.6H3.39961C2.4055 13.6 1.59961 12.7941 1.59961 11.8V5.00001C1.59961 4.00589 2.4055 3.20001 3.39961 3.20001H7.39961C7.73098 3.20001 7.99961 3.46864 7.99961 3.80001C7.99961 4.13138 7.73098 4.40001 7.39961 4.40001H3.39961Z" fill="#96999E"/>
<path fill-rule="evenodd" clip-rule="evenodd" d="M4.95469 10.2026C5.17701 10.4483 5.55643 10.4672 5.80216 10.2449L13.1996 3.55199V5.80001C13.1996 6.13138 13.4682 6.40001 13.7996 6.40001C14.131 6.40001 14.3996 6.13138 14.3996 5.80001V2.20001C14.3996 1.86864 14.131 1.60001 13.7996 1.60001H10.1996C9.86824 1.60001 9.59961 1.86864 9.59961 2.20001C9.59961 2.53138 9.86824 2.80001 10.1996 2.80001H12.2421L4.99706 9.35508C4.75134 9.57741 4.73237 9.95683 4.95469 10.2026Z" fill="#96999E"/>
</svg>
