<svg width="25" height="24" viewBox="0 0 25 24" fill="none" xmlns="http://www.w3.org/2000/svg">
<path d="M12.6667 15C14.3236 15 15.6667 13.6569 15.6667 12C15.6667 10.3431 14.3236 9 12.6667 9C11.0099 9 9.66675 10.3431 9.66675 12C9.66675 13.6569 11.0099 15 12.6667 15Z" fill="#434546"/>
<path fill-rule="evenodd" clip-rule="evenodd" d="M1.99016 11.4467C3.47741 6.97571 7.69466 3.75 12.6673 3.75C17.6376 3.75 21.8532 6.97271 23.3423 11.4405C23.4626 11.8015 23.4628 12.1922 23.3426 12.5533C21.8554 17.0243 17.6381 20.25 12.6655 20.25C7.69522 20.25 3.47958 17.0273 1.99049 12.5595C1.87015 12.1985 1.87003 11.8078 1.99016 11.4467ZM17.9167 12C17.9167 14.8995 15.5662 17.25 12.6667 17.25C9.76725 17.25 7.41675 14.8995 7.41675 12C7.41675 9.1005 9.76725 6.75 12.6667 6.75C15.5662 6.75 17.9167 9.1005 17.9167 12Z" fill="#434546"/>
</svg>
