<svg width="24" height="25" viewBox="0 0 24 25" fill="none" xmlns="http://www.w3.org/2000/svg">
<path d="M2.25 13.1997V12.4497C2.25 11.2071 3.25736 10.1997 4.5 10.1997H19.5C20.7426 10.1997 21.75 11.2071 21.75 12.4497V13.1997M13.0607 6.76037L10.9393 4.63905C10.658 4.35774 10.2765 4.19971 9.87868 4.19971H4.5C3.25736 4.19971 2.25 5.20707 2.25 6.44971V18.4497C2.25 19.6923 3.25736 20.6997 4.5 20.6997H19.5C20.7426 20.6997 21.75 19.6923 21.75 18.4497V9.44971C21.75 8.20707 20.7426 7.19971 19.5 7.19971H14.1213C13.7235 7.19971 13.342 7.04167 13.0607 6.76037Z" stroke="#96999E" stroke-width="1.5" stroke-linecap="round" stroke-linejoin="round"/>
</svg>
