<svg width="32" height="32" viewBox="0 0 32 32" fill="none" xmlns="http://www.w3.org/2000/svg">
<path d="M18 28.0001V18.0001C18 17.4478 18.4477 17.0001 19 17.0001H23C23.5523 17.0001 24 17.4478 24 18.0001V28.0001M18 28.0001H3.14784M18 28.0001H24M24 28.0001H28.8522M27 28.0001V12.4651M5 28.0001V12.4654M5 12.4654C6.52972 13.3496 8.5197 13.1373 9.82843 11.8286C9.88792 11.7691 9.94515 11.7082 10.0001 11.646C10.7331 12.4764 11.8054 13.0001 13 13.0001C14.1947 13.0001 15.2671 12.4763 16 11.6459C16.7329 12.4763 17.8053 13.0001 19 13.0001C20.1946 13.0001 21.2668 12.4764 21.9998 11.6462C22.0546 11.7083 22.1118 11.7691 22.1712 11.8285C23.48 13.1373 25.4702 13.3495 27 12.4651M5 12.4654C4.70385 12.2942 4.42494 12.082 4.17157 11.8286C2.60948 10.2665 2.60948 7.73384 4.17157 6.17175L5.75729 4.58603C6.13236 4.21096 6.64107 4.00024 7.1715 4.00024H24.8282C25.3587 4.00024 25.8674 4.21096 26.2425 4.58603L27.8281 6.17163C29.3902 7.73373 29.3902 10.2664 27.8281 11.8285C27.5748 12.0817 27.296 12.2939 27 12.4651M9 24.0001H14C14.5523 24.0001 15 23.5523 15 23.0001V18.0001C15 17.4478 14.5523 17.0001 14 17.0001H9C8.44772 17.0001 8 17.4478 8 18.0001V23.0001C8 23.5523 8.44772 24.0001 9 24.0001Z" stroke="#4E7C3C" stroke-width="1.5" stroke-linecap="round" stroke-linejoin="round"/>
</svg>
