<svg width="18" height="20" viewBox="0 0 18 20" fill="none" xmlns="http://www.w3.org/2000/svg">
<path fill-rule="evenodd" clip-rule="evenodd" d="M0.599998 2.20002C0.599998 1.20591 1.40589 0.400024 2.4 0.400024H10.6544C11.1318 0.400024 11.5896 0.589667 11.9272 0.927232L16.8728 5.87282C17.2104 6.21038 17.4 6.66822 17.4 7.14561V17.8C17.4 18.7941 16.5941 19.6 15.6 19.6H2.4C1.40589 19.6 0.599998 18.7941 0.599998 17.8V2.20002ZM13.6279 9.02938C13.9202 8.62739 13.8313 8.06452 13.4294 7.77216C13.0274 7.47981 12.4645 7.56868 12.1721 7.97067L7.99163 13.7189L5.73639 11.4636C5.38492 11.1122 4.81507 11.1122 4.4636 11.4636C4.11213 11.8151 4.11213 12.3849 4.4636 12.7364L7.4636 15.7364C7.64972 15.9225 7.90799 16.0179 8.1704 15.9973C8.4328 15.9767 8.67305 15.8422 8.82786 15.6294L13.6279 9.02938Z" fill="currentColor"/>
</svg>
