<svg width="24" height="24" viewBox="0 0 24 24" fill="none" xmlns="http://www.w3.org/2000/svg">
<path fill-rule="evenodd" clip-rule="evenodd" d="M20.208 12.1943C20.208 11.588 20.1536 11.0051 20.0525 10.4454H12V13.7527H16.6015C16.4032 14.8215 15.8009 15.727 14.8953 16.3333V18.4785H17.6585C19.2753 16.9901 20.208 14.7982 20.208 12.1943Z" fill="#4285F4"/>
<path fill-rule="evenodd" clip-rule="evenodd" d="M12 20.55C14.3085 20.55 16.2439 19.7843 17.6585 18.4785L14.8953 16.3332C14.1297 16.8462 13.1504 17.1494 12 17.1494C9.77311 17.1494 7.88822 15.6454 7.21588 13.6245H4.35941V15.8397C5.76627 18.634 8.65772 20.55 12 20.55Z" fill="#34A853"/>
<path fill-rule="evenodd" clip-rule="evenodd" d="M7.2159 13.6245C7.0449 13.1115 6.94774 12.5635 6.94774 12C6.94774 11.4365 7.0449 10.8885 7.2159 10.3755V8.16028H4.35942C3.78035 9.31453 3.45001 10.6203 3.45001 12C3.45001 13.3797 3.78035 14.6855 4.35942 15.8397L7.2159 13.6245Z" fill="#FBBC05"/>
<path fill-rule="evenodd" clip-rule="evenodd" d="M12 6.85052C13.2553 6.85052 14.3823 7.28191 15.2684 8.12913L17.7207 5.67684C16.24 4.29718 14.3046 3.44995 12 3.44995C8.65772 3.44995 5.76627 5.36593 4.35941 8.16022L7.21588 10.3755C7.88822 8.35454 9.77311 6.85052 12 6.85052Z" fill="#EA4335"/>
</svg>
