<svg width="142" height="142" viewBox="0 0 142 142" fill="none" xmlns="http://www.w3.org/2000/svg">
<path d="M141.945 69.725C142.657 109.722 109.791 142.647 69.8047 142C54.0641 141.762 38.8532 136.276 26.5826 126.411C26.4303 126.29 26.3081 126.134 26.2256 125.957C26.1431 125.78 26.1024 125.587 26.1068 125.392C26.1111 125.197 26.1603 125.005 26.2506 124.832C26.3409 124.659 26.4698 124.51 26.6274 124.394C36.4458 117.203 45.9158 109.568 54.5791 101.022C66.9717 88.7998 77.7013 74.6556 84.4876 58.6238C85.827 55.4613 87.0866 52.1095 89.6259 49.7936C92.1652 47.4778 96.4471 46.6311 98.9664 48.9619C100.575 50.456 101.068 52.8615 100.759 55.038C100.45 57.2144 99.4543 59.2165 98.4735 61.1837L88.2567 81.6779C87.4352 83.3264 86.5987 85.0247 86.4892 86.8575C86.3796 88.6902 87.2012 90.7123 88.8791 91.4494C91.0449 92.4006 93.4746 90.9513 95.2471 89.3626C99.0582 85.9392 102.119 81.763 104.235 77.0973C106.352 72.4316 107.479 67.3777 107.545 62.2545C107.575 57.1596 106.549 52.1145 106.37 47.0196C106.191 41.9247 106.992 36.5309 110.184 32.5516C111.769 30.6257 113.829 29.1466 116.16 28.2601C118.492 27.3736 121.014 27.1104 123.478 27.4966C125.193 27.7971 126.835 28.4207 128.317 29.3343C128.462 29.4282 128.589 29.5481 128.691 29.6879C137.082 41.372 141.706 55.3406 141.945 69.725Z" fill="#EDC32E"/>
<path d="M115.367 15.5983C115.516 15.7196 115.635 15.8732 115.715 16.0475C115.796 16.2217 115.836 16.4121 115.832 16.604C115.828 16.796 115.781 16.9846 115.693 17.1555C115.606 17.3264 115.481 17.4751 115.327 17.5904C105.509 24.7721 96.0386 32.4169 87.3802 40.9533C74.9876 53.1701 64.258 67.3193 57.4717 83.3461C56.1324 86.5136 54.8677 89.8654 52.3335 92.1862C49.7992 94.5071 45.5123 95.3488 42.993 93.013C41.3798 91.5189 40.8869 89.1133 41.1956 86.9369C41.5043 84.7605 42.5 82.7584 43.4859 80.7912C46.8882 73.9681 50.2938 67.145 53.7027 60.3219C54.5242 58.6784 55.3607 56.9701 55.4702 55.1373C55.5797 53.3046 54.7682 51.2975 53.0753 50.5654C50.9095 49.6191 48.4798 51.0634 46.7122 52.6571C42.9023 56.0808 39.8433 60.2573 37.7283 64.9231C35.6133 69.5889 34.4883 74.6426 34.4242 79.7652C34.3894 84.8601 35.42 89.9052 35.5943 94.9952C35.7685 100.085 34.9719 105.489 31.7804 109.438C30.1919 111.368 28.1266 112.849 25.7895 113.734C23.4524 114.619 20.9245 114.877 18.4567 114.483C16.6571 114.16 14.9394 113.483 13.4031 112.491C4.62872 100.36 -0.0649011 85.7537 -0.000194336 70.7806C0.114321 31.9189 31.8302 0.159156 70.7008 -0.000215001C86.9389 -0.0881272 102.712 5.42019 115.367 15.5983Z" fill="#4E7C3C"/>
<path d="M128.666 29.6282C128.575 29.5113 128.463 29.4118 128.337 29.3343C126.859 28.4165 125.217 27.7926 123.503 27.4966C121.036 27.1012 118.508 27.3578 116.171 28.241C113.834 29.1243 111.768 30.6034 110.179 32.5317C106.987 36.516 106.196 41.9047 106.36 46.9997C106.524 52.0946 107.57 57.1347 107.545 62.2545C107.482 67.3773 106.358 72.4314 104.243 77.0974C102.128 81.7633 99.0679 85.9397 95.257 89.3626C93.4895 90.9264 91.0597 92.4006 88.8939 91.4494C87.216 90.7123 86.4044 88.6952 86.504 86.8575C86.6036 85.0197 87.45 83.3214 88.2666 81.6779C91.6788 74.8548 95.0861 68.0317 98.4883 61.2086C99.4841 59.2414 100.48 57.2243 100.774 55.0629C101.067 52.9014 100.589 50.4759 98.9763 48.9868C96.4569 46.651 92.175 47.4927 89.6408 49.8136C87.1065 52.1344 85.8418 55.4862 84.4975 58.6487C77.7112 74.6755 66.9816 88.8247 54.589 101.047C45.9207 109.568 36.4457 117.203 26.6273 124.384C26.4771 124.495 26.3534 124.638 26.2651 124.802C26.1767 124.966 26.1259 125.148 26.1164 125.335C26.1069 125.521 26.1388 125.707 26.21 125.879C26.2811 126.052 26.3896 126.206 26.5277 126.332C21.5549 122.336 17.1407 117.691 13.4032 112.521C14.9411 113.513 16.6605 114.191 18.4618 114.513C20.9292 114.909 23.4571 114.652 25.7943 113.767C28.1316 112.883 30.197 111.403 31.7855 109.473C34.977 105.489 35.7686 100.1 35.5993 95.0302C35.43 89.9602 34.3944 84.8902 34.4293 79.7953C34.4922 74.6732 35.6168 69.6199 37.7319 64.9548C39.847 60.2896 42.9066 56.1141 46.7173 52.6922C48.4798 51.1184 50.9145 49.6492 53.0754 50.6005C54.7583 51.3375 55.5649 53.3596 55.4703 55.1923C55.3757 57.0251 54.5243 58.7284 53.7077 60.3769C50.2988 67.1734 46.8916 73.9849 43.486 80.8113C42.4902 82.7736 41.4944 84.7956 41.2006 86.9571C40.9069 89.1186 41.3849 91.539 42.998 93.0331C45.5174 95.3639 49.7993 94.5272 52.3335 92.2014C54.8678 89.8756 56.1325 86.5337 57.4768 83.3662C64.2631 67.3345 74.9927 53.1902 87.3853 40.9684C96.0387 32.4321 105.514 24.7922 115.332 17.6106C115.484 17.4988 115.61 17.3544 115.699 17.1879C115.788 17.0214 115.839 16.837 115.847 16.6484C115.856 16.4597 115.822 16.2715 115.748 16.0976C115.675 15.9237 115.563 15.7684 115.422 15.6433C120.446 19.6865 124.901 24.3907 128.666 29.6282Z" fill="white"/>
</svg>
