<svg width="40" height="43" viewBox="0 0 40 43" fill="none" xmlns="http://www.w3.org/2000/svg">
<path d="M1.68933 0V31.4472L7.45427 34.7753L7.51202 34.8081L19.9674 41.9985L20.003 41.9777L20.0385 41.9985L31.7505 35.2351L32.5576 34.7724L38.3107 31.4502V0H1.68933ZM4.86723 29.6068V3.19277H35.1387V29.6068L32.5635 31.0946V16.0487L32.5872 13.027L23.554 21.7201L21.7222 19.9437L32.5428 9.47715L32.5739 5.54495L19.7231 18.0021L7.34173 6.00021L7.37282 9.93241L23.5481 25.5809L29.7943 19.6045V32.6969L20.0696 38.5424L20.003 38.5037L19.9363 38.5424L10.2249 32.7103V19.6565L20.1999 29.3092L22.165 27.3454L7.45427 13.082V31.102L4.86723 29.6068Z" fill="#786047"/>
</svg>
