<svg width="300" height="72" viewBox="0 0 300 72" fill="none" xmlns="http://www.w3.org/2000/svg">
<g clip-path="url(#clip0_3481_1936)">
<path d="M101.761 20.9596C105.306 20.9596 107.905 22.7273 108.786 25.5505C108.878 25.863 109.066 26.1375 109.325 26.3331C109.583 26.5287 109.897 26.6351 110.22 26.6364H116.8C116.252 18.8384 110.31 14.0404 101.761 14.0404C94.3547 14.0404 88.6402 18.0076 86.3533 24.4217C85.6384 26.5461 85.2832 28.7768 85.3025 31.0202C85.2834 33.2628 85.6386 35.4927 86.3533 37.6162C88.6402 44.0303 94.3597 47.9975 101.578 47.9975C110.217 47.9975 115.794 42.8308 116.34 35.4015H109.769C109.444 35.4025 109.128 35.5102 108.868 35.7083C108.609 35.9065 108.42 36.1843 108.331 36.5C107.48 39.3157 105.043 41.0303 101.668 41.0303C97.965 41.0303 95.0402 38.8157 93.8067 35.3106C93.3168 33.9348 93.0843 32.4792 93.1212 31.0177C93.0807 29.556 93.3132 28.0996 93.8067 26.7247C95.0402 23.2323 97.965 20.9596 101.761 20.9596Z" fill="#4E7C3C"/>
<path d="M135.007 14.0505C127.371 14.0505 121.656 18.0177 119.372 24.4318C118.657 26.5562 118.302 28.7869 118.321 31.0303C118.302 33.2729 118.657 35.5028 119.372 37.6263C121.656 44.1339 127.418 48.0076 135.052 48.0076C142.733 48.0076 148.355 43.995 150.642 37.6263C151.393 35.5111 151.764 33.2773 151.738 31.0303C151.765 28.7825 151.394 26.5479 150.642 24.4318C148.4 18.0177 142.685 14.0505 135.007 14.0505ZM143.236 35.3207C141.955 38.9192 139.03 41.0404 135.007 41.0404C130.984 41.0404 128.056 38.8258 126.823 35.3207C126.333 33.945 126.1 32.4893 126.137 31.0278C126.097 29.5661 126.329 28.1097 126.823 26.7349C128.056 23.2324 130.984 20.9596 135.007 20.9596C139.075 20.9596 141.955 23.2324 143.236 26.7273C143.706 28.108 143.938 29.5602 143.921 31.0202C143.936 32.4826 143.704 33.9367 143.236 35.3207Z" fill="#4E7C3C"/>
<path d="M173.47 42.6112H172.556L172.246 39.2046C171.906 35.4671 171.016 31.8016 169.607 28.3283L164.525 15.8182C164.411 15.5396 164.217 15.3017 163.969 15.1348C163.72 14.9679 163.428 14.8797 163.129 14.8814H153.264V47.1794H158.533C158.931 47.1794 159.313 47.0197 159.594 46.7356C159.876 46.4514 160.034 46.066 160.034 45.6642V19.4445H160.95L161.2 22.5506C161.517 26.4577 162.433 30.2914 163.917 33.9142L169.359 47.1844H178.696C179.094 47.1844 179.476 47.0248 179.758 46.7406C180.039 46.4565 180.197 46.0711 180.197 45.6693V14.8814H173.47V42.6112Z" fill="#4E7C3C"/>
<path d="M209.19 24.4773C207.041 18.3864 201.74 14.8813 194.469 14.8813H183.21C182.812 14.8813 182.43 15.041 182.148 15.3251C181.867 15.6093 181.709 15.9947 181.709 16.3965V47.1793H189.16V23.3132C189.16 22.9113 189.318 22.5259 189.599 22.2418C189.881 21.9576 190.263 21.798 190.661 21.798H194.694C198.124 21.798 200.639 23.7829 201.782 26.8738C202.253 28.2056 202.485 29.6113 202.468 31.0253C202.492 32.4148 202.26 33.7968 201.785 35.101C200.686 38.2374 198.174 40.2677 194.697 40.2677H192.195C191.796 40.2677 191.415 40.4273 191.133 40.7115C190.852 40.9956 190.693 41.381 190.693 41.7829V47.1945H194.469C201.785 47.1945 207.041 43.6869 209.19 37.6414C209.913 35.5189 210.268 33.287 210.241 31.043C210.27 28.8096 209.914 26.5881 209.19 24.4773Z" fill="#4E7C3C"/>
<path d="M232.019 16.3915V28.7652H216.339V16.3915C216.339 15.9897 216.181 15.6043 215.899 15.3201C215.617 15.036 215.236 14.8763 214.837 14.8763H211.768V47.1743H214.84C215.238 47.1743 215.62 47.0147 215.902 46.7305C216.183 46.4464 216.341 46.061 216.341 45.6592V33.1516H232.021V45.6667C232.021 46.0686 232.179 46.454 232.461 46.7381C232.742 47.0223 233.124 47.1819 233.522 47.1819H236.597V14.8814H233.515C233.118 14.8827 232.739 15.0423 232.458 15.3252C232.178 15.6081 232.02 15.9914 232.019 16.3915Z" fill="#EDC32E"/>
<path d="M238.114 16.3914V47.1793H256.766V44.3056C256.766 43.9037 256.608 43.5184 256.326 43.2342C256.045 42.9501 255.663 42.7904 255.265 42.7904H242.692V33.1516H254.817C255.215 33.1516 255.597 32.9919 255.878 32.7078C256.16 32.4236 256.318 32.0382 256.318 31.6364V28.7677H242.692V19.2627H255.275C255.673 19.2627 256.055 19.103 256.336 18.8189C256.618 18.5347 256.776 18.1494 256.776 17.7475V14.8813H239.612C239.215 14.882 238.835 15.0412 238.554 15.3242C238.273 15.6072 238.115 15.9909 238.114 16.3914Z" fill="#EDC32E"/>
<path d="M275.445 42.7955H262.863V16.3915C262.863 15.9897 262.705 15.6043 262.423 15.3201C262.142 15.036 261.76 14.8763 261.362 14.8763H258.289V47.1743H276.939V44.3056C276.938 43.906 276.78 43.523 276.5 43.2402C276.221 42.9573 275.841 42.7975 275.445 42.7955Z" fill="#EDC32E"/>
<path d="M298.811 19.3561C297.21 16.495 293.965 14.8813 289.849 14.8813H278.47V47.1793H281.545C281.943 47.1793 282.325 47.0197 282.607 46.7356C282.888 46.4514 283.046 46.066 283.046 45.6642V20.7753C283.046 20.3734 283.205 19.9881 283.486 19.7039C283.768 19.4198 284.149 19.2601 284.548 19.2601H289.862C292.241 19.2601 293.885 20.1844 294.663 21.5329C295.128 22.3572 295.361 23.2942 295.336 24.2425C295.359 25.1961 295.121 26.1376 294.651 26.9647C293.872 28.3031 292.229 29.2702 289.849 29.2702H286.064C285.666 29.2702 285.284 29.4299 285.002 29.714C284.721 29.9982 284.563 30.3835 284.563 30.7854V33.6566H289.844C293.96 33.6566 297.205 31.995 298.806 29.1339C299.623 27.6374 300.034 25.9504 300 24.2425C300.035 22.5367 299.625 20.8516 298.811 19.3561Z" fill="#EDC32E"/>
<path d="M93.1412 67.4016C92.7742 66.3239 92.7742 65.1535 93.1412 64.0758C93.4148 63.3088 93.9218 62.6488 94.5896 62.1902C95.2574 61.7316 96.0518 61.498 96.8591 61.5228C98.8607 61.5228 100.362 62.7475 100.474 64.5834H99.3086C99.181 63.4192 98.1977 62.6213 96.8716 62.6213C96.2971 62.612 95.7348 62.7887 95.267 63.1254C94.7992 63.4621 94.4505 63.9412 94.2721 64.4925C93.9985 65.3012 93.9985 66.1787 94.2721 66.9874C94.4464 67.5319 94.7874 68.0064 95.246 68.3427C95.7047 68.679 96.2572 68.8596 96.8241 68.8586C98.1527 68.8586 99.0334 68.0834 99.181 66.894H100.349C100.199 68.697 98.8482 69.9546 96.7566 69.9546C95.9651 69.9639 95.1907 69.7227 94.5422 69.2647C93.8937 68.8068 93.4037 68.1552 93.1412 67.4016Z" fill="white"/>
<path d="M102.008 68.7777C101.679 68.2478 101.505 67.6353 101.505 67.0101C101.505 66.3849 101.679 65.7723 102.008 65.2424C102.28 64.8799 102.631 64.5859 103.034 64.3835C103.437 64.181 103.881 64.0757 104.331 64.0757C104.782 64.0757 105.226 64.181 105.629 64.3835C106.032 64.5859 106.383 64.8799 106.654 65.2424C106.983 65.7723 107.157 66.3849 107.157 67.0101C107.157 67.6353 106.983 68.2478 106.654 68.7777C106.382 69.1393 106.031 69.4325 105.628 69.6343C105.225 69.8361 104.781 69.9411 104.331 69.9411C103.881 69.9411 103.438 69.8361 103.035 69.6343C102.632 69.4325 102.28 69.1393 102.008 68.7777ZM102.969 68.2575C103.124 68.4755 103.329 68.653 103.565 68.7755C103.802 68.898 104.064 68.9618 104.33 68.9618C104.596 68.9618 104.858 68.898 105.095 68.7755C105.331 68.653 105.536 68.4755 105.691 68.2575C105.917 67.8814 106.036 67.4499 106.036 67.0101C106.036 66.5702 105.917 66.1388 105.691 65.7626C105.536 65.5446 105.331 65.3671 105.095 65.2446C104.858 65.1222 104.596 65.0583 104.33 65.0583C104.064 65.0583 103.802 65.1222 103.565 65.2446C103.329 65.3671 103.124 65.5446 102.969 65.7626C102.745 66.1393 102.626 66.5705 102.626 67.0101C102.626 67.4496 102.745 67.8808 102.969 68.2575Z" fill="white"/>
<path d="M108.531 64.2374H109.617L109.336 65.7399H109.507C109.839 64.6415 110.47 64.0758 111.373 64.0758C112.677 64.0758 113.375 64.8839 113.375 66.4091V69.7803H112.286V66.5253C112.286 65.5783 111.873 65.0935 111.085 65.0935C110.192 65.0935 109.632 65.7854 109.632 66.894V69.7803H108.546L108.531 64.2374Z" fill="white"/>
<path d="M115.121 68.9041C114.769 68.351 114.595 67.7022 114.621 67.0455C114.609 66.3628 114.806 65.6929 115.184 65.1263C115.417 64.7911 115.73 64.5196 116.093 64.3362C116.457 64.1529 116.859 64.0634 117.265 64.0758C118.879 64.0758 119.805 65.1036 119.805 66.8536V67.3157H115.749C115.771 67.6854 115.885 68.0434 116.082 68.3561C116.227 68.5583 116.421 68.7197 116.645 68.8249C116.869 68.9301 117.116 68.9757 117.363 68.9572C118.016 68.9572 118.506 68.6566 118.701 68.1011H119.79C119.595 69.1642 118.611 69.937 117.385 69.937C116.31 69.9496 115.591 69.5733 115.121 68.9041ZM118.624 66.4218C118.589 65.5203 118.096 65.0354 117.25 65.0354C117.017 65.0354 116.787 65.0921 116.579 65.2006C116.372 65.3092 116.194 65.4664 116.059 65.6592C115.915 65.8901 115.818 66.1476 115.774 66.4168L118.624 66.4218Z" fill="white"/>
<path d="M122.227 66.9975L120.303 64.2374H121.631L122.855 66.0985L122.877 66.5026H123.05L123.072 66.0985L124.296 64.2374H125.624L123.703 66.9975L125.624 69.7753H124.296L123.072 67.9521L123.05 67.5581H122.877L122.855 67.9521L121.631 69.7753H120.303L122.227 66.9975Z" fill="white"/>
<path d="M126.735 69.4698C126.463 69.1619 126.312 68.7645 126.31 68.3522C126.308 67.9399 126.454 67.5408 126.723 67.2299C127.056 66.894 127.568 66.7097 128.244 66.6743L129.79 66.5834V66.144C129.79 65.4849 129.39 65.0581 128.539 65.0581C127.326 65.0581 127.316 65.9925 127.316 66.1086V66.1617H126.195V66.1036C126.195 65.9647 126.195 64.0708 128.552 64.0708C130.095 64.0708 130.874 64.846 130.874 66.1389V69.7753H129.753L130.003 68.2753H129.853C129.578 69.3965 128.97 69.9369 127.951 69.9369C127.728 69.9448 127.505 69.9075 127.296 69.8273C127.088 69.747 126.897 69.6255 126.735 69.4698ZM127.879 61.9395C128.507 61.9395 128.759 62.3788 129.38 62.3788C129.443 62.3866 129.506 62.3811 129.567 62.3628C129.627 62.3445 129.683 62.3137 129.732 62.2724C129.78 62.2312 129.819 62.1803 129.847 62.123C129.874 62.0657 129.89 62.0032 129.893 61.9395H130.671C130.671 62.9092 129.963 63.2021 129.38 63.2021C128.749 63.2021 128.497 62.7627 127.879 62.7627C127.753 62.7522 127.628 62.7925 127.531 62.8749C127.434 62.9573 127.374 63.0749 127.363 63.2021H126.585C126.585 62.24 127.296 61.9395 127.879 61.9395ZM127.601 68.7879C127.684 68.8615 127.78 68.9178 127.884 68.9533C127.989 68.9889 128.099 69.0031 128.209 68.995C128.617 68.9866 129.007 68.8225 129.3 68.5358C129.592 68.249 129.767 67.8609 129.788 67.4496L128.402 67.5859C128.114 67.5883 127.835 67.6908 127.613 67.8763C127.552 67.9376 127.503 68.0113 127.472 68.0927C127.441 68.1741 127.426 68.2613 127.431 68.3485C127.427 68.4297 127.441 68.5107 127.47 68.5864C127.499 68.662 127.544 68.7307 127.601 68.7879Z" fill="white"/>
<path d="M132.637 68.7777C132.309 68.2478 132.134 67.6353 132.134 67.0101C132.134 66.3849 132.309 65.7723 132.637 65.2424C132.909 64.8799 133.26 64.5859 133.663 64.3835C134.066 64.181 134.51 64.0757 134.96 64.0757C135.411 64.0757 135.855 64.181 136.258 64.3835C136.661 64.5859 137.012 64.8799 137.284 65.2424C137.612 65.7723 137.787 66.3849 137.787 67.0101C137.787 67.6353 137.612 68.2478 137.284 68.7777C137.011 69.1393 136.66 69.4325 136.257 69.6343C135.854 69.8361 135.41 69.9411 134.96 69.9411C134.511 69.9411 134.067 69.8361 133.664 69.6343C133.261 69.4325 132.909 69.1393 132.637 68.7777ZM133.606 68.2575C133.761 68.4755 133.966 68.653 134.203 68.7755C134.44 68.8979 134.702 68.9618 134.968 68.9618C135.234 68.9618 135.496 68.8979 135.733 68.7755C135.97 68.653 136.175 68.4755 136.33 68.2575C136.555 67.8808 136.673 67.4496 136.673 67.0101C136.673 66.5705 136.555 66.1393 136.33 65.7626C136.175 65.5446 135.97 65.3671 135.733 65.2447C135.496 65.1222 135.234 65.0584 134.968 65.0584C134.702 65.0584 134.44 65.1222 134.203 65.2447C133.966 65.3671 133.761 65.5446 133.606 65.7626C133.381 66.1393 133.263 66.5705 133.263 67.0101C133.263 67.4496 133.381 67.8808 133.606 68.2575Z" fill="white"/>
<path d="M142.02 64.2374H143.113L142.793 65.8309H142.976C143.193 64.6541 143.811 64.0758 144.622 64.0758C145.665 64.0758 146.156 64.7576 146.156 65.8889V67.0329H145.022V66.2753C145.022 65.4672 144.749 65.1213 144.176 65.1213C143.478 65.1213 143.113 65.7223 143.113 66.841V69.7854H142.025L142.02 64.2374Z" fill="white"/>
<path d="M147.524 69.4697C147.256 69.1596 147.108 68.7617 147.108 68.3498C147.108 67.9379 147.256 67.54 147.524 67.2298C147.857 66.894 148.372 66.7096 149.048 66.6743L150.592 66.5834V66.144C150.592 65.4849 150.191 65.0581 149.341 65.0581C148.127 65.0581 148.115 65.9924 148.115 66.1086V66.1616H146.994V66.1036C146.994 65.9647 146.994 64.0707 149.351 64.0707C150.897 64.0707 151.675 64.846 151.675 66.1389V69.7753H150.544L150.809 68.2753H150.637C150.362 69.3965 149.756 69.9369 148.738 69.9369C148.515 69.9441 148.293 69.9065 148.085 69.8263C147.876 69.7461 147.686 69.6249 147.524 69.4697ZM148.395 68.7879C148.477 68.8615 148.573 68.9178 148.677 68.9534C148.781 68.989 148.891 69.0031 149 68.995C149.408 68.9866 149.798 68.8225 150.091 68.5357C150.384 68.249 150.558 67.8609 150.579 67.4495L149.196 67.5859C148.907 67.5889 148.628 67.6913 148.405 67.8763C148.344 67.9379 148.296 68.0117 148.264 68.093C148.233 68.1743 148.219 68.2613 148.222 68.3485C148.219 68.4298 148.233 68.511 148.263 68.5866C148.292 68.6623 148.337 68.7309 148.395 68.7879ZM149.779 61.7677H151.05L149.926 63.4975H148.965L149.779 61.7677Z" fill="white"/>
<path d="M153.371 64.2374H154.46L154.174 65.7399H154.345C154.655 64.6414 155.345 64.0758 156.359 64.0758C156.751 64.0632 157.14 64.1508 157.49 64.3304C157.84 64.5101 158.139 64.776 158.36 65.1035C158.69 65.6835 158.863 66.3404 158.863 67.0089C158.863 67.6774 158.69 68.3342 158.36 68.9142C158.14 69.242 157.84 69.5082 157.49 69.6879C157.14 69.8676 156.751 69.955 156.359 69.9419C155.358 69.9419 154.655 69.3763 154.345 68.2803H154.174L154.46 69.7803V71.8611H153.371V64.2374ZM154.792 68.3258C154.946 68.5241 155.142 68.6846 155.366 68.7949C155.59 68.9053 155.836 68.9626 156.085 68.9626C156.334 68.9626 156.58 68.9053 156.804 68.7949C157.028 68.6846 157.224 68.5241 157.377 68.3258C157.61 67.9266 157.732 67.4719 157.732 67.0089C157.732 66.5458 157.61 66.0911 157.377 65.6919C157.223 65.4945 157.027 65.3348 156.803 65.225C156.579 65.1153 156.334 65.0582 156.085 65.0582C155.836 65.0582 155.59 65.1153 155.366 65.225C155.143 65.3348 154.946 65.4945 154.792 65.6919C154.56 66.0911 154.437 66.5458 154.437 67.0089C154.437 67.4719 154.56 67.9266 154.792 68.3258Z" fill="white"/>
<path d="M160.224 62.0203H161.46V63.3839H160.224V62.0203ZM160.294 64.2374H161.378V69.7804H160.292L160.294 64.2374Z" fill="white"/>
<path d="M163.314 68.9142C162.985 68.3342 162.812 67.6774 162.812 67.0089C162.812 66.3404 162.985 65.6835 163.314 65.1036C163.535 64.7759 163.834 64.5099 164.184 64.3302C164.534 64.1505 164.923 64.063 165.316 64.0758C166.317 64.0758 167.02 64.6415 167.317 65.7399H167.488L167.202 64.2374V61.697H168.288V69.7778H167.202L167.488 68.2778H167.317C167.007 69.3738 166.317 69.9394 165.316 69.9394C164.924 69.953 164.534 69.8661 164.184 69.6868C163.834 69.5076 163.535 69.2418 163.314 68.9142ZM164.288 68.3258C164.441 68.5241 164.637 68.6846 164.861 68.795C165.085 68.9053 165.331 68.9627 165.58 68.9627C165.829 68.9627 166.075 68.9053 166.299 68.795C166.523 68.6846 166.719 68.5241 166.872 68.3258C167.105 67.9266 167.227 67.472 167.227 67.0089C167.227 66.5458 167.105 66.0912 166.872 65.692C166.718 65.4945 166.522 65.3348 166.298 65.2251C166.074 65.1153 165.829 65.0583 165.58 65.0583C165.331 65.0583 165.085 65.1153 164.861 65.2251C164.638 65.3348 164.441 65.4945 164.288 65.692C164.055 66.0912 163.932 66.5458 163.932 67.0089C163.932 67.472 164.055 67.9266 164.288 68.3258Z" fill="white"/>
<path d="M170.26 69.4697C169.991 69.1595 169.843 68.7616 169.843 68.3497C169.843 67.9378 169.991 67.5399 170.26 67.2298C170.592 66.8939 171.108 66.7096 171.781 66.6742L173.327 66.5833V66.1439C173.327 65.4848 172.927 65.0581 172.076 65.0581C170.865 65.0581 170.853 65.9924 170.853 66.1086V66.1616H169.732V66.1035C169.732 65.9646 169.732 64.0707 172.089 64.0707C173.632 64.0707 174.41 64.8459 174.41 66.1389V69.7752H173.29L173.54 68.2752H173.37C173.094 69.3964 172.489 69.9368 171.471 69.9368C171.248 69.9437 171.027 69.906 170.819 69.8258C170.611 69.7456 170.421 69.6246 170.26 69.4697ZM171.128 68.7879C171.21 68.8613 171.307 68.9175 171.411 68.953C171.516 68.9886 171.626 69.0028 171.736 68.9949C172.144 68.9865 172.533 68.8224 172.826 68.5357C173.119 68.2489 173.294 67.8608 173.315 67.4495L171.928 67.5858C171.64 67.5882 171.362 67.6908 171.14 67.8762C171.079 67.9378 171.031 68.0116 171 68.0929C170.968 68.1742 170.954 68.2613 170.958 68.3485C170.956 68.4301 170.97 68.5113 171.001 68.5869C171.031 68.6626 171.077 68.731 171.135 68.7879H171.128Z" fill="white"/>
<path d="M178.349 67.8763V67.8637C178.349 67.0203 178.784 66.3637 179.905 65.7627V65.6011C179.139 64.6087 178.829 64.0405 178.829 63.394C178.829 62.3839 179.665 61.5455 180.911 61.5455C182.157 61.5455 182.96 62.3183 182.96 63.2779V63.2905C182.96 64.2021 182.547 64.8359 181.416 65.6213V65.7829L182.8 67.5506C182.961 67.0623 183.038 66.5499 183.027 66.0354V65.5152H184.116V66.0354C184.142 66.8859 183.941 67.7277 183.533 68.4723L184.561 69.788H183.222L182.835 69.3031C182.295 69.7342 181.624 69.9627 180.936 69.9496C179.354 69.9496 178.349 69.0657 178.349 67.8763ZM181.026 68.9622C181.462 68.9715 181.884 68.8094 182.204 68.5102L180.453 66.3056C179.742 66.7324 179.48 67.1945 179.48 67.7501C179.492 68.4647 180.065 68.9622 181.026 68.9622ZM180.776 64.9647C181.576 64.3991 181.864 63.9723 181.864 63.4294C181.846 63.1856 181.738 62.9575 181.561 62.7911C181.384 62.6246 181.15 62.532 180.908 62.532C180.666 62.532 180.433 62.6246 180.255 62.7911C180.078 62.9575 179.97 63.1856 179.952 63.4294C179.962 63.7981 180.143 64.1112 180.786 64.9647H180.776Z" fill="white"/>
<path d="M188.384 62.0203H189.62V63.3839H188.384V62.0203ZM188.452 64.2374H189.54V69.7804H188.452V64.2374Z" fill="white"/>
<path d="M191.369 64.2374H192.457L192.17 65.7399H192.342C192.675 64.6415 193.303 64.0758 194.206 64.0758C195.512 64.0758 196.208 64.8839 196.208 66.4091V69.7803H195.122V66.5253C195.122 65.5783 194.709 65.0935 193.918 65.0935C193.028 65.0935 192.467 65.7854 192.467 66.894V69.7803H191.379L191.369 64.2374Z" fill="white"/>
<path d="M198.247 68.0026V65.2248H197.101V64.2425H198.247V63.192L199.333 62.649V64.2425H201.792V65.2248H199.333V68.0026C199.333 68.6491 199.583 68.9622 200.008 68.9622C200.524 68.9622 200.706 68.6389 200.706 67.841V67.0556H201.792V67.8536C201.792 69.1693 201.164 69.942 200.041 69.942C198.807 69.9496 198.247 69.2955 198.247 68.0026Z" fill="white"/>
<path d="M203.236 68.9041C202.884 68.351 202.709 67.7022 202.735 67.0455C202.725 66.3631 202.92 65.6936 203.296 65.1263C203.53 64.7911 203.843 64.5198 204.207 64.3365C204.571 64.1532 204.974 64.0636 205.38 64.0758C206.994 64.0758 207.92 65.1036 207.92 66.8536V67.3157H203.864C203.886 67.6853 204 68.0433 204.197 68.3561C204.342 68.5583 204.535 68.7197 204.76 68.8249C204.984 68.9301 205.231 68.9756 205.478 68.9571C206.131 68.9571 206.621 68.6566 206.816 68.101H207.915C207.719 69.1642 206.734 69.9369 205.51 69.9369C204.424 69.9495 203.694 69.5733 203.236 68.9041ZM206.739 66.4218C206.704 65.5202 206.211 65.0354 205.365 65.0354C205.132 65.0354 204.901 65.092 204.694 65.2006C204.487 65.3091 204.308 65.4664 204.174 65.6591C204.03 65.89 203.933 66.1476 203.889 66.4167L206.739 66.4218Z" fill="white"/>
<path d="M209.288 61.697H210.374V69.7778H209.288V61.697Z" fill="white"/>
<path d="M212.135 62.0203H213.371V63.3839H212.135V62.0203ZM212.205 64.2374H213.291V69.7804H212.205V64.2374Z" fill="white"/>
<path d="M214.722 69.7803H215.808C215.878 70.5656 216.359 71.0177 217.309 71.0177C218.293 71.0177 218.853 70.4293 218.853 69.4015V69.2727L219.231 67.7576H219.061C218.728 68.9697 218.018 69.4318 217.159 69.4318C216.781 69.4458 216.405 69.3645 216.066 69.1952C215.726 69.0259 215.434 68.774 215.215 68.4621C214.901 67.9482 214.735 67.3563 214.735 66.7525C214.735 66.1487 214.901 65.5568 215.215 65.0429C215.434 64.731 215.726 64.4791 216.066 64.3098C216.405 64.1405 216.781 64.0592 217.159 64.0732C218.018 64.0732 218.728 64.5353 219.061 65.7474H219.231L218.853 64.2323H219.924V69.0303C219.924 71.005 219.043 72 217.292 72C215.671 72 214.802 71.2121 214.722 69.7803ZM216.164 67.899C216.304 68.0829 216.484 68.2318 216.69 68.3343C216.896 68.4368 217.123 68.4901 217.353 68.4901C217.583 68.4901 217.81 68.4368 218.016 68.3343C218.223 68.2318 218.403 68.0829 218.543 67.899C218.752 67.5548 218.863 67.1589 218.863 66.755C218.863 66.3512 218.752 65.9553 218.543 65.6111C218.403 65.4272 218.223 65.2783 218.016 65.1758C217.81 65.0733 217.583 65.02 217.353 65.02C217.123 65.02 216.896 65.0733 216.69 65.1758C216.484 65.2783 216.304 65.4272 216.164 65.6111C215.954 65.9553 215.843 66.3512 215.843 66.755C215.843 67.1589 215.954 67.5548 216.164 67.899Z" fill="white"/>
<path d="M221.748 68.9041C221.396 68.3511 221.222 67.7022 221.248 67.0455C221.236 66.363 221.431 65.6932 221.808 65.1263C222.042 64.7912 222.355 64.5198 222.718 64.3365C223.081 64.1532 223.484 64.0636 223.89 64.0758C225.504 64.0758 226.429 65.1036 226.429 66.8536V67.3157H222.376C222.398 67.6853 222.512 68.0433 222.709 68.3561C222.854 68.5583 223.048 68.7197 223.272 68.8249C223.496 68.9301 223.743 68.9756 223.99 68.9571C224.643 68.9571 225.136 68.6566 225.328 68.1011H226.429C226.234 69.1642 225.251 69.9369 224.025 69.9369C222.939 69.9495 222.206 69.5733 221.748 68.9041ZM225.251 66.4218C225.216 65.5202 224.725 65.0354 223.877 65.0354C223.644 65.0358 223.414 65.0926 223.207 65.2011C222.999 65.3097 222.821 65.4667 222.686 65.6591C222.543 65.8906 222.447 66.1479 222.401 66.4167L225.251 66.4218Z" fill="white"/>
<path d="M227.8 64.2374H228.889L228.601 65.7399H228.774C229.104 64.6415 229.734 64.0758 230.638 64.0758C231.944 64.0758 232.639 64.8839 232.639 66.4091V69.7803H231.553V66.5253C231.553 65.5783 231.14 65.0935 230.35 65.0935C229.459 65.0935 228.899 65.7854 228.899 66.894V69.7803H227.81L227.8 64.2374Z" fill="white"/>
<path d="M234.686 68.0026V65.2248H233.54V64.2425H234.686V63.192L235.772 62.649V64.2425H238.231V65.2248H235.772V68.0026C235.772 68.6491 236.034 68.9622 236.447 68.9622C236.962 68.9622 237.145 68.6389 237.145 67.841V67.0556H238.231V67.8536C238.231 69.1693 237.603 69.942 236.48 69.942C235.239 69.9496 234.686 69.2955 234.686 68.0026Z" fill="white"/>
<path d="M239.665 68.9041C239.314 68.3505 239.139 67.702 239.164 67.0455C239.153 66.3631 239.349 65.6936 239.725 65.1263C239.959 64.7911 240.272 64.5198 240.636 64.3365C240.999 64.1532 241.402 64.0636 241.809 64.0758C243.423 64.0758 244.348 65.1036 244.348 66.8536V67.3157H240.295C240.316 67.6856 240.43 68.0439 240.628 68.3561C240.773 68.5585 240.966 68.72 241.191 68.8252C241.415 68.9304 241.662 68.9759 241.909 68.9571C242.562 68.9571 243.052 68.6566 243.247 68.101H244.333C244.141 69.1642 243.155 69.9369 241.931 69.9369C240.856 69.9495 240.122 69.5733 239.665 68.9041ZM243.167 66.4218C243.135 65.5202 242.642 65.0354 241.796 65.0354C241.565 65.0367 241.337 65.0937 241.131 65.2018C240.926 65.3098 240.749 65.4657 240.615 65.6566C240.471 65.8875 240.374 66.145 240.33 66.4142L243.167 66.4218Z" fill="white"/>
<path d="M71.3288 35.3535C71.6866 55.6338 55.171 72.3283 35.0776 72C27.1677 71.8794 19.524 69.0977 13.3579 64.096C13.2814 64.0341 13.22 63.9553 13.1785 63.8657C13.1371 63.776 13.1166 63.6779 13.1188 63.579C13.121 63.4801 13.1457 63.383 13.1911 63.2953C13.2365 63.2076 13.3012 63.1316 13.3804 63.0732C18.3143 59.4268 23.0731 55.5556 27.4265 51.2222C33.654 45.0253 39.0457 37.8535 42.4559 29.7247C43.129 28.1212 43.762 26.4217 45.038 25.2475C46.314 24.0732 48.4657 23.6439 49.7317 24.8258C50.5398 25.5833 50.7875 26.803 50.6324 27.9066C50.4773 29.0101 49.9769 30.0253 49.484 31.0227L44.3499 41.4141C43.9371 42.25 43.5168 43.1111 43.4617 44.0404C43.4067 44.9697 43.8195 45.9949 44.6627 46.3687C45.751 46.851 46.972 46.1162 47.8627 45.3106C49.7778 43.5748 51.3157 41.4573 52.3793 39.0916C53.443 36.7259 54.0093 34.1633 54.0426 31.5657C54.0576 28.9823 53.5422 26.4242 53.4521 23.8409C53.3621 21.2576 53.7649 18.5227 55.3687 16.5051C56.1653 15.5285 57.2004 14.7785 58.3719 14.3291C59.5434 13.8796 60.8108 13.7461 62.0489 13.9419C62.9107 14.0943 63.736 14.4105 64.4809 14.8737C64.5538 14.9213 64.6174 14.9821 64.6685 15.053C68.8852 20.9774 71.2089 28.06 71.3288 35.3535Z" fill="#EDC32E"/>
<path d="M57.9732 7.90901C58.048 7.97053 58.1079 8.04841 58.1484 8.13677C58.1889 8.22513 58.209 8.32164 58.2071 8.41898C58.2051 8.51632 58.1813 8.61194 58.1373 8.69859C58.0933 8.78524 58.0304 8.86065 57.9532 8.91911C53.0193 12.5605 48.2605 16.4368 43.9096 20.7651C37.6822 26.9595 32.2904 34.1338 28.8802 42.26C28.2072 43.8661 27.5717 45.5656 26.2982 46.7423C25.0247 47.9191 22.8704 48.3459 21.6044 47.1615C20.7938 46.404 20.5461 45.1843 20.7012 44.0807C20.8564 42.9772 21.3568 41.962 21.8521 40.9646C23.5618 37.505 25.2732 34.0454 26.9862 30.5858C27.399 29.7524 27.8194 28.8863 27.8744 27.957C27.9295 27.0277 27.5216 26.01 26.671 25.6388C25.5826 25.159 24.3616 25.8913 23.4734 26.6994C21.5589 28.4354 20.0217 30.553 18.9589 32.9188C17.8961 35.2845 17.3307 37.847 17.2985 40.4444C17.281 43.0277 17.7989 45.5858 17.8865 48.1666C17.9741 50.7474 17.5738 53.4873 15.97 55.4898C15.1717 56.4683 14.1339 57.2191 12.9595 57.6678C11.785 58.1165 10.5148 58.2475 9.27469 58.0479C8.37034 57.884 7.50718 57.5407 6.73518 57.0378C2.32593 50.8868 -0.0326725 43.4808 -0.000156544 35.8888C0.057389 16.1843 15.995 0.0807231 35.528 -8.49442e-05C43.6878 -0.0446601 51.6139 2.74829 57.9732 7.90901Z" fill="#4E7C3C"/>
<path d="M64.6562 15.0228C64.6105 14.9635 64.5545 14.9131 64.4911 14.8738C63.7481 14.4085 62.9233 14.0921 62.0616 13.942C60.822 13.7415 59.5519 13.8716 58.3775 14.3195C57.203 14.7673 56.165 15.5173 55.3663 16.495C53.7626 18.5152 53.3648 21.2475 53.4473 23.8309C53.5299 26.4142 54.0553 28.9698 54.0428 31.5657C54.0112 34.1632 53.4461 36.7258 52.3833 39.0917C51.3204 41.4575 49.7829 43.5751 47.8679 45.3107C46.9797 46.1036 45.7587 46.8511 44.6704 46.3687C43.8272 45.995 43.4194 44.9723 43.4694 44.0405C43.5195 43.1086 43.9448 42.2475 44.3551 41.4142C46.0698 37.9546 47.782 34.495 49.4917 31.0354C49.9921 30.0379 50.4925 29.0152 50.6401 27.9193C50.7877 26.8233 50.5475 25.5935 49.7369 24.8384C48.4709 23.6541 46.3192 24.0809 45.0457 25.2576C43.7722 26.4344 43.1367 28.1339 42.4611 29.7374C39.0509 37.8637 33.6592 45.0379 27.4317 51.2349C23.0758 55.5556 18.3145 59.4268 13.3806 63.0682C13.3052 63.1244 13.243 63.1967 13.1986 63.28C13.1542 63.3633 13.1287 63.4555 13.1239 63.55C13.1191 63.6444 13.1352 63.7388 13.1709 63.8262C13.2067 63.9137 13.2612 63.992 13.3306 64.0556C10.8317 62.0297 8.61348 59.6745 6.73535 57.0531C7.50817 57.5561 8.37218 57.8995 9.27736 58.0632C10.5173 58.2636 11.7875 58.1332 12.9621 57.6849C14.1366 57.2366 15.1745 56.486 15.9727 55.5076C17.5764 53.4874 17.9742 50.7551 17.8892 48.1844C17.8041 45.6137 17.2837 43.043 17.3012 40.4597C17.3329 37.8626 17.898 35.3003 18.9608 32.9349C20.0237 30.5695 21.5612 28.4523 23.4761 26.7172C24.3618 25.9193 25.5853 25.1743 26.6711 25.6566C27.5168 26.0304 27.9221 27.0556 27.8746 27.9849C27.827 28.9142 27.3992 29.7778 26.9889 30.6137C25.2759 34.0598 23.5637 37.5135 21.8523 40.9748C21.3519 41.9698 20.8515 42.995 20.7039 44.091C20.5563 45.1869 20.7965 46.4142 21.6071 47.1718C22.8731 48.3536 25.0248 47.9294 26.2983 46.7501C27.5718 45.5708 28.2073 43.8763 28.8829 42.2703C32.2931 34.1415 37.6849 26.9698 43.9123 20.7728C48.2607 16.4445 53.022 12.5708 57.9559 8.92936C58.0324 8.8727 58.0953 8.79947 58.1401 8.71504C58.1849 8.63062 58.2104 8.53715 58.2147 8.44149C58.219 8.34583 58.2021 8.2504 58.1651 8.16222C58.1281 8.07404 58.072 7.99533 58.0009 7.93188C60.5259 9.98194 62.7646 12.3672 64.6562 15.0228Z" fill="white"/>
</g>
<defs>
<clipPath id="clip0_3481_1936">
<rect width="300" height="72" fill="white"/>
</clipPath>
</defs>
</svg>
