<svg width="136" height="43" viewBox="0 0 136 43" fill="none" xmlns="http://www.w3.org/2000/svg">
<g clip-path="url(#clip0_3454_2467)">
<path d="M0.5 0.5V31.9472L6.26494 35.2753L6.32269 35.3081L18.7781 42.4985L18.8136 42.4777L18.8492 42.4985L30.5612 35.7351L31.3683 35.2724L37.1214 31.9502V0.5H0.5ZM3.6779 30.1068V3.69277H33.9494V30.1068L31.3742 31.5946V16.5487L31.3979 13.527L22.3647 22.2201L20.5329 20.4437L31.3535 9.97715L31.3846 6.04495L18.5338 18.5021L6.1524 6.50021L6.18349 10.4324L22.3588 26.0809L28.605 20.1045V33.1969L18.8803 39.0424L18.8136 39.0037L18.747 39.0424L9.03561 33.2103V20.1565L19.0106 29.8092L20.9757 27.8454L6.26494 13.582V31.602L3.6779 30.1068Z" fill="#F4F5F7"/>
<path d="M47.7865 7.13104V14.6845H45.0676V2.17822H47.7924L52.152 10.1854L56.5871 2.17822H59.2393V14.6845H56.5205V7.16228L52.1831 15.0728L47.7865 7.13104Z" fill="#F4F5F7"/>
<path d="M72.5506 8.43132C72.5506 6.12824 70.7736 4.49763 68.5878 4.49763C66.4021 4.49763 64.6206 6.12824 64.6206 8.43132C64.6206 10.7344 66.3977 12.3665 68.5834 12.3665C70.7691 12.3665 72.5461 10.7299 72.5461 8.43132M61.9062 8.43132C61.9062 4.7818 64.8057 1.94312 68.5908 1.94312C72.3758 1.94312 75.2827 4.77733 75.2827 8.42686C75.2827 12.0764 72.3803 14.9314 68.5952 14.9314C64.8102 14.9314 61.9107 12.0749 61.9107 8.42686" fill="#F4F5F7"/>
<path d="M80.6702 7.70086H84.0761C85.1127 7.70086 85.7673 7.18757 85.7673 6.15952C85.7673 5.15676 85.1098 4.63008 84.0761 4.63008H80.6702V7.70086ZM85.4444 14.6845L80.6702 9.45049V14.6845H77.9351V2.17822H83.8584C86.7402 2.17822 88.5587 3.64815 88.5587 6.15952C88.5587 8.60245 87.0882 9.87897 84.3916 9.97567L89.077 14.6845H85.4444Z" fill="#F4F5F7"/>
<path d="M91.3545 2.17822H101.178V4.67025H94.0733V6.85729L99.0623 6.87068V9.28386H94.0733V12.1865H101.193V14.6845H91.3545V2.17822Z" fill="#F4F5F7"/>
<path d="M106.595 2.17822H103.86V14.6845H106.595V2.17822Z" fill="#F4F5F7"/>
<path d="M112.72 7.70086H116.134C117.17 7.70086 117.826 7.18757 117.826 6.15952C117.826 5.15676 117.167 4.63008 116.134 4.63008H112.72V7.70086ZM117.496 14.6845L112.72 9.45049V14.6845H109.985V2.17822H115.908C118.792 2.17822 120.609 3.64815 120.609 6.15952C120.609 8.60245 119.138 9.87897 116.443 9.97567L121.127 14.6845H117.496Z" fill="#F4F5F7"/>
<path d="M130.095 10.0515L128.33 6.74867L126.575 10.0515H130.095ZM128.362 1.63666L135.5 14.6815H132.569L131.309 12.3234H125.37L124.117 14.6815H121.13L128.362 1.63666Z" fill="#F4F5F7"/>
<path d="M47.7865 21.433V28.9865H45.0676V16.4802H47.7924L52.152 24.4874L56.5871 16.4802H59.2393V28.9865H56.5205V21.4643L52.1831 29.3748L47.7865 21.433Z" fill="#F4F5F7"/>
<path d="M62.6304 16.4802H72.4528V18.9723H65.3492V21.1608L70.3367 21.1727V23.5859H65.3492V26.4885H72.4691V28.9865H62.6304V16.4802Z" fill="#F4F5F7"/>
<path d="M75.1348 16.4802H77.8418L84.1576 24.9368V16.4802H86.8764V28.9865H84.1976L77.8699 20.5433V28.9865H75.1348V16.4802Z" fill="#F4F5F7"/>
<path d="M94.491 26.4885C97.6348 26.4781 99.0387 25.0617 99.0387 22.7572C99.0387 20.4526 97.6348 18.9693 94.491 18.9425L92.9849 18.9291V26.4945L94.491 26.4885ZM90.2661 16.4802L94.4984 16.4579C98.9705 16.4341 101.768 19.1047 101.768 22.7527C101.768 26.4008 98.9705 28.9865 94.4984 28.9865H90.2661V16.4802Z" fill="#F4F5F7"/>
<path d="M104.424 16.4802H114.248V18.9723H107.143V21.1608L112.132 21.1727V23.5859H107.143V26.4885H114.263V28.9865H104.424V16.4802Z" fill="#F4F5F7"/>
<path d="M116.015 27.6847L117.487 25.5557C118.758 26.2889 120.197 26.679 121.663 26.6879C122.996 26.6879 123.816 26.2088 123.863 25.4203C123.911 24.6645 123.438 24.3878 121.965 24.062L120.42 23.7183C117.639 23.1024 116.52 21.8288 116.517 19.9364C116.517 17.8535 118.623 16.3151 121.364 16.3121C123.096 16.3133 124.798 16.7753 126.295 17.6511L124.919 19.7757C123.911 19.1806 122.828 18.7848 121.624 18.7789C120.34 18.7789 119.439 19.2252 119.442 20.0152C119.442 20.7189 119.979 21.0567 121.219 21.3319L122.919 21.7053C125.584 22.2915 126.695 23.4326 126.698 25.4173C126.698 27.5791 124.635 29.1561 121.549 29.1591C119.566 29.1591 117.46 28.5833 116.027 27.6817" fill="#F4F5F7"/>
</g>
<defs>
<clipPath id="clip0_3454_2467">
<rect width="135" height="42" fill="white" transform="translate(0.5 0.5)"/>
</clipPath>
</defs>
</svg>
