<svg width="188" height="149" viewBox="0 0 188 149" fill="none" xmlns="http://www.w3.org/2000/svg">
<g clip-path="url(#clip0_3418_6422)">
<path d="M59.5989 0V58.7678L70.427 64.9851L70.5387 65.0481L93.9341 78.4821L94.0029 78.4449L94.0688 78.4821L116.08 65.8413L117.596 64.9822L128.404 58.7764V0H59.5989ZM65.5702 55.3141V5.96813H122.433V55.3141L117.596 58.1062V29.9924L117.642 24.3422L100.676 40.5856L97.2378 37.2665L117.559 17.7097L117.619 10.3612L93.4785 33.6438L70.2178 11.2146L70.2751 18.5631L100.662 47.8052L112.393 36.6364V61.1132L94.1261 72.0357L94.0029 71.9584L93.8768 72.0357L75.6447 61.1247V36.7338L94.3783 54.7757L98.0688 51.1043L70.4384 24.4711V58.1349L65.5702 55.3141Z" fill="#786047"/>
<path d="M23.9341 87.188L14.7192 102.804L5.66189 87.188H0V113.037H5.65043V97.426L14.7822 112.908L23.7966 97.489V113.037H29.447V87.188H23.9341Z" fill="#A59486"/>
<path d="M57.126 100.115C57.126 95.3527 53.4412 91.982 48.8939 91.982C44.3467 91.982 40.659 95.3641 40.659 100.115C40.659 104.866 44.3467 108.251 48.8939 108.251C53.4412 108.251 57.126 104.881 57.126 100.118M35.02 100.118C35.02 92.5777 41.0372 86.7069 48.9083 86.7069C56.7793 86.7069 62.7994 92.5777 62.7994 100.118C62.7994 107.658 56.7822 113.578 48.9083 113.578C41.0343 113.578 35.02 107.667 35.02 100.118Z" fill="#A59486"/>
<path d="M74.0201 98.603H81.1118C83.2608 98.603 84.6275 97.5406 84.6275 95.4185C84.6275 93.3451 83.2608 92.2683 81.1118 92.2683H74.0201V98.603ZM83.9542 113.037L74.0344 102.22V113.037H68.3381V87.188H80.6591C86.6476 87.188 90.4241 90.2293 90.4241 95.4185C90.4241 100.467 87.3668 103.116 81.7679 103.305L91.5101 113.042L83.9542 113.037Z" fill="#A59486"/>
<path d="M96.2349 87.188H116.647V92.3399H101.885V96.859L112.249 96.8876V101.876H101.885V107.876H116.679V113.037H96.2349V87.188Z" fill="#A59486"/>
<path d="M127.92 87.188H122.238V113.039H127.92V87.188Z" fill="#A59486"/>
<path d="M140.656 98.603H147.748C149.897 98.603 151.264 97.5406 151.264 95.4185C151.264 93.3451 149.897 92.2683 147.748 92.2683H140.656V98.603ZM150.576 113.037L140.656 102.22V113.037H134.974V87.188H147.295C153.284 87.188 157.06 90.2293 157.06 95.4185C157.06 100.467 154.003 103.116 148.404 103.305L158.146 113.042L150.576 113.037Z" fill="#A59486"/>
<path d="M176.774 103.466L173.106 96.6385L169.461 103.466H176.774ZM173.172 86.0682L188 113.034H181.914L179.295 108.165H166.954L164.35 113.034H158.143L173.172 86.0682Z" fill="#A59486"/>
<path d="M45.6733 122.785H66.0831V127.937H51.3238V132.459L61.6848 132.487V137.476H51.3238V143.473H66.1146V148.636H45.6733V122.785Z" fill="#A59486"/>
<path d="M71.6733 122.785H77.2951L90.4183 140.265V122.785H96.0688V148.636H90.5014L77.3553 131.184V148.636H71.6733V122.785Z" fill="#A59486"/>
<path d="M111.911 143.476C118.438 143.453 121.367 140.526 121.367 135.766C121.367 131.007 118.447 127.934 111.911 127.88L108.779 127.851V143.476H111.911ZM103.132 122.788L111.926 122.742C121.215 122.696 127.029 128.215 127.029 135.755C127.029 143.295 121.203 148.631 111.926 148.631H103.132V122.788Z" fill="#A59486"/>
<path d="M132.567 122.785H152.98V127.937H138.218V132.459L148.582 132.487V137.476H138.218V143.473H153.012V148.636H132.567V122.785Z" fill="#A59486"/>
<path d="M156.67 145.947L159.722 141.546C162.361 143.062 165.348 143.868 168.392 143.885C171.149 143.885 172.868 142.894 172.977 141.265C173.074 139.701 172.094 139.131 169.037 138.458L165.814 137.748C160.034 136.471 157.713 133.839 157.702 129.927C157.702 125.632 162.08 122.444 167.774 122.436C171.374 122.439 174.909 123.398 178.017 125.213L175.152 129.601C173.054 128.366 170.805 127.553 168.304 127.542C165.636 127.542 163.759 128.447 163.768 130.096C163.768 131.551 164.885 132.258 167.447 132.82L170.977 133.59C176.527 134.799 178.825 137.158 178.834 141.262C178.834 145.732 174.536 148.994 168.132 148.994C164.011 148.994 159.642 147.803 156.67 145.942" fill="#A59486"/>
<path d="M14.8081 133.023V148.636H9.15771V122.785H14.8196L23.8769 138.401L33.0918 122.785H38.6018V148.636H32.9543V133.089L23.94 148.505L14.8081 133.023Z" fill="#A59486"/>
</g>
<defs>
<clipPath id="clip0_3418_6422">
<rect width="188" height="149" fill="white"/>
</clipPath>
</defs>
</svg>
