<svg width="20" height="18" viewBox="0 0 20 18" fill="none" xmlns="http://www.w3.org/2000/svg">
<path fill-rule="evenodd" clip-rule="evenodd" d="M2.125 0C1.08947 0 0.25 0.839466 0.25 1.875V15C0.25 16.6569 1.59315 18 3.25 18H18.25C16.5931 18 15.25 16.6569 15.25 15V1.875C15.25 0.839466 14.4105 0 13.375 0H2.125ZM10 6.75C9.58579 6.75 9.25 7.08579 9.25 7.5C9.25 7.91421 9.58579 8.25 10 8.25H11.5C11.9142 8.25 12.25 7.91421 12.25 7.5C12.25 7.08579 11.9142 6.75 11.5 6.75H10ZM9.25 4.5C9.25 4.08579 9.58579 3.75 10 3.75H11.5C11.9142 3.75 12.25 4.08579 12.25 4.5C12.25 4.91421 11.9142 5.25 11.5 5.25H10C9.58579 5.25 9.25 4.91421 9.25 4.5ZM4 9.75C3.58579 9.75 3.25 10.0858 3.25 10.5C3.25 10.9142 3.58579 11.25 4 11.25H11.5C11.9142 11.25 12.25 10.9142 12.25 10.5C12.25 10.0858 11.9142 9.75 11.5 9.75H4ZM3.25 13.5C3.25 13.0858 3.58579 12.75 4 12.75H11.5C11.9142 12.75 12.25 13.0858 12.25 13.5C12.25 13.9142 11.9142 14.25 11.5 14.25H4C3.58579 14.25 3.25 13.9142 3.25 13.5ZM4 3.75C3.58579 3.75 3.25 4.08579 3.25 4.5V7.5C3.25 7.91421 3.58579 8.25 4 8.25H7C7.41421 8.25 7.75 7.91421 7.75 7.5V4.5C7.75 4.08579 7.41421 3.75 7 3.75H4Z" fill="currentColor"/>
<path d="M16.75 3.75H18.625C19.2463 3.75 19.75 4.25368 19.75 4.875V15C19.75 15.8284 19.0784 16.5 18.25 16.5C17.4216 16.5 16.75 15.8284 16.75 15V3.75Z" fill="currentColor"/>
</svg>
