<svg width="25" height="24" viewBox="0 0 25 24" fill="none" xmlns="http://www.w3.org/2000/svg">
<path d="M5.57625 16.4513C5.21796 16.7958 5.20679 17.3655 5.5513 17.7238C5.89581 18.0821 6.46555 18.0933 6.82385 17.7488L12.2238 12.6487C12.4003 12.4791 12.5 12.2448 12.5 12C12.5 11.7552 12.4003 11.5209 12.2238 11.3513L6.82385 6.25125C6.46555 5.90674 5.89581 5.91791 5.5513 6.2762C5.20679 6.6345 5.21796 7.20424 5.57625 7.54875L10.3016 12L5.57625 16.4513Z" fill="#96999E"/>
<path d="M12.7763 16.4513C12.418 16.7958 12.4068 17.3655 12.7513 17.7238C13.0958 18.0821 13.6656 18.0933 14.0238 17.7488L19.4238 12.6487C19.6003 12.4791 19.7 12.2448 19.7 12C19.7 11.7552 19.6003 11.5209 19.4238 11.3513L14.0238 6.25125C13.6656 5.90674 13.0958 5.91791 12.7513 6.2762C12.4068 6.6345 12.418 7.20424 12.7763 7.54875L17.5016 12L12.7763 16.4513Z" fill="#96999E"/>
</svg>
