<svg width="20" height="20" viewBox="0 0 20 20" fill="none" xmlns="http://www.w3.org/2000/svg">
<path fill-rule="evenodd" clip-rule="evenodd" d="M0.0666504 9.9999C0.0666504 4.69797 4.36472 0.399902 9.66665 0.399902C14.9686 0.399902 19.2667 4.69797 19.2667 9.9999C19.2667 15.3018 14.9686 19.5999 9.66665 19.5999C4.36472 19.5999 0.0666504 15.3018 0.0666504 9.9999ZM6.06665 7.2999C6.06665 6.80285 6.46959 6.3999 6.96665 6.3999H7.56665C8.06371 6.3999 8.46665 6.80285 8.46665 7.2999V12.6999C8.46665 13.197 8.06371 13.5999 7.56665 13.5999H6.96665C6.46959 13.5999 6.06665 13.197 6.06665 12.6999V7.2999ZM10.8667 7.2999C10.8667 6.80285 11.2696 6.3999 11.7667 6.3999H12.3667C12.8637 6.3999 13.2667 6.80285 13.2667 7.2999V12.6999C13.2667 13.197 12.8637 13.5999 12.3667 13.5999H11.7667C11.2696 13.5999 10.8667 13.197 10.8667 12.6999V7.2999Z" fill="#FFA903"/>
</svg>
