<svg width="16" height="17" viewBox="0 0 16 17" fill="none" xmlns="http://www.w3.org/2000/svg">
<path d="M6.4002 13.5C6.4002 13.1686 6.66882 12.9 7.0002 12.9H9.0002C9.33157 12.9 9.6002 13.1686 9.6002 13.5C9.6002 13.8314 9.33157 14.1 9.0002 14.1H7.0002C6.66882 14.1 6.4002 13.8314 6.4002 13.5Z" fill="#96999E"/>
<path fill-rule="evenodd" clip-rule="evenodd" d="M3.2002 3.7C3.2002 2.37452 4.27471 1.3 5.6002 1.3H10.4002C11.7257 1.3 12.8002 2.37452 12.8002 3.7V13.3C12.8002 14.6255 11.7257 15.7 10.4002 15.7H5.6002C4.27471 15.7 3.2002 14.6255 3.2002 13.3V3.7ZM6.4002 2.5V3.1C6.4002 3.43137 6.66882 3.7 7.0002 3.7H9.0002C9.33157 3.7 9.6002 3.43137 9.6002 3.1V2.5H10.4002C11.0629 2.5 11.6002 3.03726 11.6002 3.7V13.3C11.6002 13.9627 11.0629 14.5 10.4002 14.5H5.6002C4.93745 14.5 4.4002 13.9627 4.4002 13.3V3.7C4.4002 3.03726 4.93745 2.5 5.6002 2.5H6.4002Z" fill="#96999E"/>
</svg>
