<svg width="25" height="24" viewBox="0 0 25 24" fill="none" xmlns="http://www.w3.org/2000/svg">
<path d="M7.22012 13.8287C6.97944 13.8589 6.73939 13.8911 6.5 13.9253M7.22012 13.8287C8.94957 13.6118 10.7117 13.5 12.5 13.5C14.2883 13.5 16.0504 13.6118 17.7799 13.8287M7.22012 13.8287L6.84091 18M17.7799 13.8287C18.0206 13.8589 18.2606 13.8911 18.5 13.9253M17.7799 13.8287L18.1591 18M18.1591 18L18.3885 20.5231C18.4484 21.182 17.9296 21.75 17.2681 21.75H7.73191C7.07038 21.75 6.55164 21.182 6.61153 20.5231L6.84091 18M18.1591 18H19.25C20.4926 18 21.5 16.9926 21.5 15.75V9.45569C21.5 8.37475 20.7321 7.44082 19.6631 7.28086C19.0293 7.18604 18.3916 7.10361 17.75 7.03381M6.84091 18H5.75C4.50736 18 3.5 16.9926 3.5 15.75V9.45569C3.5 8.37475 4.2679 7.44082 5.33694 7.28086C5.97066 7.18604 6.60843 7.10361 7.25 7.03381M17.75 7.03381C16.0258 6.84625 14.2741 6.75 12.5 6.75C10.7259 6.75 8.97423 6.84625 7.25 7.03381M17.75 7.03381V3.375C17.75 2.75368 17.2463 2.25 16.625 2.25H8.375C7.75368 2.25 7.25 2.75368 7.25 3.375V7.03381M18.5 10.5H18.5075V10.5075H18.5V10.5ZM15.5 10.5H15.5075V10.5075H15.5V10.5Z" stroke="#61676A" stroke-width="1.5" stroke-linecap="round" stroke-linejoin="round"/>
</svg>
