<svg width="32" height="32" viewBox="0 0 32 32" fill="none" xmlns="http://www.w3.org/2000/svg">
<path d="M29 9C29 12.3137 26.3137 15 23 15C22.8275 15 22.6567 14.9927 22.4879 14.9784C21.0539 14.8572 19.4688 15.0736 18.554 16.1845L9.01909 27.7625C8.37382 28.5461 7.41196 29 6.39691 29C4.52085 29 3 27.4792 3 25.6031C3 24.588 3.45393 23.6262 4.23747 22.9809L15.8155 13.446C16.9264 12.5312 17.1428 10.9461 17.0216 9.51215C17.0073 9.34333 17 9.17251 17 9C17 5.68629 19.6863 3 23 3C23.8805 3 24.7166 3.18965 25.4699 3.53032L21.1016 7.89862C21.4431 9.38618 22.614 10.5571 24.1016 10.8986L28.4698 6.53039C28.8104 7.28357 29 8.11964 29 9Z" stroke="#4E7C3C" stroke-width="1.5" stroke-linecap="round" stroke-linejoin="round"/>
<path d="M6.48965 25.5001H6.49965V25.5101H6.48965V25.5001Z" stroke="#4E7C3C" stroke-width="1.5" stroke-linecap="round" stroke-linejoin="round"/>
</svg>
