<svg width="24" height="25" viewBox="0 0 24 25" fill="none" xmlns="http://www.w3.org/2000/svg">
<path d="M9 12.1499H12.75M9 15.1499H12.75M9 18.1499H12.75M15.75 18.8999H18C19.2426 18.8999 20.25 17.8925 20.25 16.6499V6.25812C20.25 5.12314 19.405 4.16006 18.2739 4.06618C17.9006 4.03519 17.5261 4.00848 17.1505 3.98609M11.3495 3.98609C11.2848 4.19592 11.25 4.41884 11.25 4.6499C11.25 5.06412 11.5858 5.3999 12 5.3999H16.5C16.9142 5.3999 17.25 5.06412 17.25 4.6499C17.25 4.41884 17.2152 4.19592 17.1505 3.98609M11.3495 3.98609C11.6328 3.06747 12.4884 2.3999 13.5 2.3999H15C16.0116 2.3999 16.8672 3.06747 17.1505 3.98609M11.3495 3.98609C10.9739 4.00848 10.5994 4.03519 10.2261 4.06618C9.09499 4.16006 8.25 5.12314 8.25 6.25812V8.3999M8.25 8.3999H4.875C4.25368 8.3999 3.75 8.90358 3.75 9.5249V20.7749C3.75 21.3962 4.25368 21.8999 4.875 21.8999H14.625C15.2463 21.8999 15.75 21.3962 15.75 20.7749V9.5249C15.75 8.90358 15.2463 8.3999 14.625 8.3999H8.25ZM6.75 12.1499H6.7575V12.1574H6.75V12.1499ZM6.75 15.1499H6.7575V15.1574H6.75V15.1499ZM6.75 18.1499H6.7575V18.1574H6.75V18.1499Z" stroke="#96999E" stroke-width="1.5" stroke-linecap="round" stroke-linejoin="round"/>
</svg>
