<svg width="25" height="24" viewBox="0 0 25 24" fill="none" xmlns="http://www.w3.org/2000/svg">
<path d="M7.71721 10.9071C7.33295 10.2169 6.596 9.75 5.75 9.75C4.50736 9.75 3.5 10.7574 3.5 12C3.5 13.2426 4.50736 14.25 5.75 14.25C6.596 14.25 7.33295 13.7831 7.71721 13.0929M7.71721 10.9071C7.89737 11.2307 8 11.6034 8 12C8 12.3966 7.89737 12.7693 7.71721 13.0929M7.71721 10.9071L17.2828 5.5929M7.71721 13.0929L17.2828 18.4071M17.2828 18.4071C17.1026 18.7307 17 19.1034 17 19.5C17 20.7426 18.0074 21.75 19.25 21.75C20.4926 21.75 21.5 20.7426 21.5 19.5C21.5 18.2574 20.4926 17.25 19.25 17.25C18.404 17.25 17.6671 17.7169 17.2828 18.4071ZM17.2828 5.5929C17.6671 6.28309 18.404 6.75 19.25 6.75C20.4926 6.75 21.5 5.74264 21.5 4.5C21.5 3.25736 20.4926 2.25 19.25 2.25C18.0074 2.25 17 3.25736 17 4.5C17 4.89664 17.1026 5.26931 17.2828 5.5929Z" stroke="#61676A" stroke-width="1.5" stroke-linecap="round" stroke-linejoin="round"/>
</svg>
