<svg width="135" height="43" viewBox="0 0 135 43" fill="none" xmlns="http://www.w3.org/2000/svg">
<g clip-path="url(#clip0_3404_1486)">
<path d="M0 0V31.4472L5.76494 34.7753L5.82269 34.8081L18.2781 41.9985L18.3136 41.9777L18.3492 41.9985L30.0612 35.2351L30.8683 34.7724L36.6214 31.4502V0H0ZM3.1779 29.6068V3.19277H33.4494V29.6068L30.8742 31.0946V16.0487L30.8979 13.027L21.8647 21.7201L20.0329 19.9437L30.8535 9.47715L30.8846 5.54495L18.0338 18.0021L5.6524 6.00021L5.68349 9.93241L21.8588 25.5809L28.105 19.6045V32.6969L18.3803 38.5424L18.3136 38.5037L18.247 38.5424L8.53561 32.7103V19.6565L18.5106 29.3092L20.4757 27.3454L5.76494 13.082V31.102L3.1779 29.6068Z" fill="#786047"/>
<path d="M47.2865 6.63104V14.1845H44.5676V1.67822H47.2924L51.652 9.68545L56.0871 1.67822H58.7393V14.1845H56.0205V6.66228L51.6831 14.5728L47.2865 6.63104Z" fill="#A59486"/>
<path d="M72.0507 7.93132C72.0507 5.62824 70.2737 3.99763 68.088 3.99763C65.9022 3.99763 64.1208 5.62824 64.1208 7.93132C64.1208 10.2344 65.8978 11.8665 68.0835 11.8665C70.2692 11.8665 72.0463 10.2299 72.0463 7.93132M61.4064 7.93132C61.4064 4.2818 64.3059 1.44312 68.0909 1.44312C71.876 1.44312 74.7829 4.27733 74.7829 7.92686C74.7829 11.5764 71.8804 14.4314 68.0954 14.4314C64.3103 14.4314 61.4108 11.5749 61.4108 7.92686" fill="#A59486"/>
<path d="M80.1702 7.20086H83.5761C84.6127 7.20086 85.2673 6.68757 85.2673 5.65952C85.2673 4.65676 84.6098 4.13008 83.5761 4.13008H80.1702V7.20086ZM84.9444 14.1845L80.1702 8.95049V14.1845H77.4351V1.67822H83.3584C86.2402 1.67822 88.0587 3.14815 88.0587 5.65952C88.0587 8.10245 86.5882 9.37897 83.8916 9.47567L88.577 14.1845H84.9444Z" fill="#A59486"/>
<path d="M90.8545 1.67822H100.678V4.17025H93.5733V6.35729L98.5623 6.37068V8.78386H93.5733V11.6865H100.693V14.1845H90.8545V1.67822Z" fill="#A59486"/>
<path d="M106.095 1.67822H103.36V14.1845H106.095V1.67822Z" fill="#A59486"/>
<path d="M112.22 7.20086H115.633C116.67 7.20086 117.326 6.68757 117.326 5.65952C117.326 4.65676 116.667 4.13008 115.633 4.13008H112.22V7.20086ZM116.996 14.1845L112.22 8.95049V14.1845H109.485V1.67822H115.408C118.292 1.67822 120.109 3.14815 120.109 5.65952C120.109 8.10245 118.638 9.37897 115.943 9.47567L120.627 14.1845H116.996Z" fill="#A59486"/>
<path d="M129.595 9.55154L127.83 6.24867L126.075 9.55154H129.595ZM127.862 1.13666L135 14.1815H132.069L130.809 11.8234H124.87L123.617 14.1815H120.63L127.862 1.13666Z" fill="#A59486"/>
<path d="M47.2865 20.933V28.4865H44.5676V15.9802H47.2924L51.652 23.9874L56.0871 15.9802H58.7393V28.4865H56.0205V20.9643L51.6831 28.8748L47.2865 20.933Z" fill="#A59486"/>
<path d="M62.1305 15.9802H71.953V18.4723H64.8493V20.6608L69.8368 20.6727V23.0859H64.8493V25.9885H71.9692V28.4865H62.1305V15.9802Z" fill="#A59486"/>
<path d="M74.6348 15.9802H77.3418L83.6576 24.4368V15.9802H86.3764V28.4865H83.6976L77.3699 20.0433V28.4865H74.6348V15.9802Z" fill="#A59486"/>
<path d="M93.9909 25.9885C97.1347 25.9781 98.5385 24.5617 98.5385 22.2572C98.5385 19.9526 97.1347 18.4693 93.9909 18.4425L92.4848 18.4291V25.9945L93.9909 25.9885ZM89.766 15.9802L93.9983 15.9579C98.4704 15.9341 101.268 18.6047 101.268 22.2527C101.268 25.9008 98.4704 28.4865 93.9983 28.4865H89.766V15.9802Z" fill="#A59486"/>
<path d="M103.924 15.9802H113.748V18.4723H106.643V20.6608L111.632 20.6727V23.0859H106.643V25.9885H113.763V28.4865H103.924V15.9802Z" fill="#A59486"/>
<path d="M115.515 27.1847L116.987 25.0557C118.258 25.7889 119.697 26.179 121.163 26.1879C122.496 26.1879 123.316 25.7088 123.364 24.9203C123.411 24.1645 122.939 23.8878 121.465 23.562L119.921 23.2183C117.14 22.6024 116.02 21.3288 116.017 19.4364C116.017 17.3535 118.123 15.8151 120.864 15.8121C122.596 15.8133 124.298 16.2753 125.795 17.1511L124.419 19.2757C123.411 18.6806 122.328 18.2848 121.124 18.2789C119.841 18.2789 118.939 18.7252 118.942 19.5152C118.942 20.2189 119.479 20.5567 120.719 20.8319L122.419 21.2053C125.084 21.7915 126.195 22.9326 126.198 24.9173C126.198 27.0791 124.135 28.6561 121.049 28.6591C119.066 28.6591 116.96 28.0833 115.527 27.1817" fill="#A59486"/>
</g>
<defs>
<clipPath id="clip0_3404_1486">
<rect width="135" height="42" fill="white"/>
</clipPath>
</defs>
</svg>
