<svg width="24" height="25" viewBox="0 0 24 25" fill="none" xmlns="http://www.w3.org/2000/svg">
<path d="M11.4194 15.3192L17.25 21.1498C18.2855 22.1854 19.9645 22.1854 21 21.1498C22.0355 20.1143 22.0355 18.4354 21 17.3998L15.1233 11.5231M11.4194 15.3192L13.9155 12.2882C14.2315 11.9045 14.6542 11.663 15.1233 11.5231M11.4194 15.3192L6.76432 20.9717C6.28037 21.5594 5.55897 21.8998 4.79768 21.8998C3.39064 21.8998 2.25 20.7592 2.25 19.3522C2.25 18.5909 2.59044 17.8695 3.1781 17.3855L10.0146 11.7554M15.1233 11.5231C15.6727 11.3593 16.2858 11.3346 16.8659 11.3837C16.9925 11.3944 17.1206 11.3998 17.25 11.3998C19.7353 11.3998 21.75 9.38512 21.75 6.89984C21.75 6.23957 21.6078 5.61252 21.3523 5.04763L18.0762 8.32381C16.9605 8.06769 16.0823 7.18947 15.8262 6.07381L19.1024 2.79758C18.5375 2.54208 17.9103 2.39984 17.25 2.39984C14.7647 2.39984 12.75 4.41456 12.75 6.89984C12.75 7.02923 12.7555 7.15733 12.7662 7.28395C12.8571 8.3594 12.6948 9.54825 11.8617 10.2344L11.7596 10.3184M10.0146 11.7554L5.90901 7.64984H4.5L2.25 3.89984L3.75 2.39984L7.5 4.64984V6.05885L11.7596 10.3184M10.0146 11.7554L11.7596 10.3184M18.375 18.5248L15.75 15.8998M4.86723 19.2749H4.87473V19.2824H4.86723V19.2749Z" stroke="currentColor" stroke-width="1.5" stroke-linecap="round" stroke-linejoin="round"/>
</svg>
