<svg width="80" height="80" viewBox="0 0 80 80" fill="none" xmlns="http://www.w3.org/2000/svg">
<path d="M11.2869 50.9303L29.0697 68.7132C29.7126 69.355 30.584 69.7157 31.4926 69.7157C32.4012 69.7157 33.2726 69.355 33.9154 68.7132L69.2068 33.4217C69.3842 33.2522 69.5213 33.0452 69.6082 32.8158C69.6955 32.5864 69.7298 32.3405 69.7097 32.096L67.0125 14.5875C66.9906 14.1702 66.8151 13.7759 66.5197 13.4805C66.224 13.1851 65.8299 13.0094 65.4125 12.9875L47.904 10.2903C47.6595 10.27 47.4136 10.3046 47.1842 10.3916C46.9549 10.4786 46.7478 10.6158 46.5783 10.7932L11.2869 46.0846C10.6448 46.7274 10.2842 47.5989 10.2842 48.5075C10.2842 49.416 10.6448 50.2874 11.2869 50.9303Z" stroke="black" stroke-width="2" stroke-linecap="round" stroke-linejoin="round"/>
<path d="M53.2071 29.0788C51.9447 29.0788 50.9214 28.0554 50.9214 26.793C50.9214 25.5307 51.9447 24.5073 53.2071 24.5073C54.4695 24.5073 55.4926 25.5307 55.4926 26.793C55.4926 28.0554 54.4695 29.0788 53.2071 29.0788Z" stroke="black" stroke-width="2" stroke-linecap="round" stroke-linejoin="round"/>
</svg>
