<svg width="25" height="24" viewBox="0 0 25 24" fill="none" xmlns="http://www.w3.org/2000/svg">
<path d="M15.6667 19.1276C16.4997 19.37 17.3805 19.5 18.2917 19.5C19.7705 19.5 21.1693 19.1576 22.4131 18.5478C22.4155 18.4905 22.4167 18.4329 22.4167 18.375C22.4167 16.0968 20.5699 14.25 18.2917 14.25C16.8737 14.25 15.6228 14.9655 14.8803 16.0552M15.6667 19.1276V19.125C15.6667 18.0121 15.3816 16.9658 14.8803 16.0552M15.6667 19.1276C15.6667 19.1632 15.6664 19.1988 15.6658 19.2343C13.8041 20.3552 11.6232 21 9.29175 21C6.96027 21 4.77939 20.3552 2.91767 19.2343C2.91706 19.198 2.91675 19.1615 2.91675 19.125C2.91675 15.6042 5.77093 12.75 9.29175 12.75C11.6997 12.75 13.7958 14.085 14.8803 16.0552M12.6667 6.375C12.6667 8.23896 11.1557 9.75 9.29175 9.75C7.42779 9.75 5.91675 8.23896 5.91675 6.375C5.91675 4.51104 7.42779 3 9.29175 3C11.1557 3 12.6667 4.51104 12.6667 6.375ZM20.9167 8.625C20.9167 10.0747 19.7415 11.25 18.2917 11.25C16.842 11.25 15.6667 10.0747 15.6667 8.625C15.6667 7.17525 16.842 6 18.2917 6C19.7415 6 20.9167 7.17525 20.9167 8.625Z" stroke="#434546" stroke-width="1.5" stroke-linecap="round" stroke-linejoin="round"/>
</svg>
