<svg width="25" height="24" viewBox="0 0 25 24" fill="none" xmlns="http://www.w3.org/2000/svg">
<path d="M17.167 18.75H8.16701M17.167 18.75C18.8239 18.75 20.167 20.0931 20.167 21.75H5.16701C5.16701 20.0931 6.51015 18.75 8.16701 18.75M17.167 18.75V15.375C17.167 14.7537 16.6633 14.25 16.042 14.25H15.1704M8.16701 18.75V15.375C8.16701 14.7537 8.67069 14.25 9.29201 14.25H10.1636M15.1704 14.25H10.1636M15.1704 14.25C14.623 13.3038 14.2765 12.227 14.1889 11.0777M10.1636 14.25C10.711 13.3038 11.0575 12.227 11.1451 11.0777M5.91701 4.23636C4.93471 4.3792 3.96236 4.55275 3.00098 4.75601C3.45129 7.42349 5.66193 9.49282 8.39665 9.72775M5.91701 4.23636V4.5C5.91701 6.60778 6.88311 8.48992 8.39665 9.72775M5.91701 4.23636V2.72089C8.12243 2.41051 10.376 2.25 12.667 2.25C14.958 2.25 17.2116 2.41051 19.417 2.72089V4.23636M8.39665 9.72775C9.18423 10.3719 10.12 10.8415 11.1451 11.0777M19.417 4.23636V4.5C19.417 6.60778 18.4509 8.48992 16.9374 9.72775M19.417 4.23636C20.3993 4.3792 21.3717 4.55275 22.333 4.75601C21.8827 7.42349 19.6721 9.49282 16.9374 9.72775M16.9374 9.72775C16.1498 10.3719 15.214 10.8415 14.1889 11.0777M14.1889 11.0777C13.6998 11.1904 13.1904 11.25 12.667 11.25C12.1437 11.25 11.6342 11.1904 11.1451 11.0777" stroke="#434546" stroke-width="1.5" stroke-linecap="round" stroke-linejoin="round"/>
</svg>
