<svg width="16" height="16" viewBox="0 0 16 16" fill="none" xmlns="http://www.w3.org/2000/svg">
<path fill-rule="evenodd" clip-rule="evenodd" d="M7.99998 14.4C11.5346 14.4 14.4 11.5346 14.4 7.99998C14.4 4.46535 11.5346 1.59998 7.99998 1.59998C4.46535 1.59998 1.59998 4.46535 1.59998 7.99998C1.59998 11.5346 4.46535 14.4 7.99998 14.4ZM7.39998 10.6C7.39998 10.9313 7.6686 11.2 7.99998 11.2C8.33135 11.2 8.59998 10.9313 8.59998 10.6V6.9279L10.1603 8.60825C10.3858 8.85107 10.7654 8.86513 11.0082 8.63965C11.2511 8.41417 11.2651 8.03453 11.0397 7.7917L8.43965 4.9917C8.32612 4.86944 8.16682 4.79998 7.99998 4.79998C7.83313 4.79998 7.67383 4.86944 7.5603 4.9917L4.9603 7.7917C4.73482 8.03453 4.74888 8.41417 4.9917 8.63965C5.23453 8.86513 5.61417 8.85107 5.83965 8.60825L7.39998 6.9279V10.6Z" fill="#4E7C3C"/>
</svg>
