<svg width="20" height="20" viewBox="0 0 20 20" fill="none" xmlns="http://www.w3.org/2000/svg">
<path fill-rule="evenodd" clip-rule="evenodd" d="M19.6 10C19.6 15.302 15.3019 19.6 10 19.6C4.69807 19.6 0.400002 15.302 0.400002 10C0.400002 4.69809 4.69807 0.400024 10 0.400024C15.3019 0.400024 19.6 4.69809 19.6 10ZM13 7.00002C13 8.65688 11.6569 10 10 10C8.34315 10 7 8.65688 7 7.00002C7 5.34317 8.34315 4.00002 10 4.00002C11.6569 4.00002 13 5.34317 13 7.00002ZM10 12.4C7.6496 12.4 5.56224 13.5263 4.24815 15.2685C5.67411 16.8244 7.72312 17.8 10 17.8C12.2769 17.8 14.3259 16.8244 15.7519 15.2685C14.4378 13.5263 12.3504 12.4 10 12.4Z" fill="currentColor"/>
</svg>
